<mxfile host="65bd71144e">
    <diagram id="sG5zmhfsY3b6JXb7qCu9" name="Page-1">
        <mxGraphModel dx="1298" dy="1162" grid="1" gridSize="10" guides="1" tooltips="1" connect="1" arrows="1" fold="1" page="0" pageScale="1" pageWidth="850" pageHeight="1100" math="0" shadow="0">
            <root>
                <mxCell id="0"/>
                <mxCell id="1" parent="0"/>
                <mxCell id="40" value="" style="rounded=0;whiteSpace=wrap;html=1;" vertex="1" parent="1">
                    <mxGeometry x="-50" y="-40" width="710" height="580" as="geometry"/>
                </mxCell>
                <mxCell id="27" value="API Calls&lt;div&gt;ex: GET /api/pets&lt;/div&gt;&lt;div&gt;POST /api/questionnaire&lt;/div&gt;&lt;div&gt;&lt;br&gt;&lt;/div&gt;" style="edgeStyle=none;html=1;exitX=1;exitY=0.5;exitDx=0;exitDy=0;entryX=0;entryY=0.5;entryDx=0;entryDy=0;" parent="1" source="2" target="15" edge="1">
                    <mxGeometry relative="1" as="geometry"/>
                </mxCell>
                <mxCell id="2" value="Frontend" style="rounded=0;whiteSpace=wrap;html=1;labelPosition=center;verticalLabelPosition=top;align=center;verticalAlign=bottom;fillColor=none;" parent="1" vertex="1">
                    <mxGeometry x="30" y="60" width="160" height="110" as="geometry"/>
                </mxCell>
                <mxCell id="10" value="" style="shape=image;verticalLabelPosition=bottom;labelBackgroundColor=default;verticalAlign=top;aspect=fixed;imageAspect=0;image=data:image/png,iVBORw0KGgoAAAANSUhEUgAAAOYAAADbCAMAAABOUB36AAAAYFBMVEX///9RwuBJwN9Hv9/3/P1Sw+D7/v6y4O/2/P2+5vLI6vTs+Pvw+fzn9vri9PllyePT7vae2+xexuK65fFyzeWG0+jQ7fXa8feT1+p5z+am3u7F6fNty+S04/CT1ut4zuaAKsFDAAATJ0lEQVR4nO1dibaqOhI9hEFlBmUQ5fr/f9lkqEwkEI964K1291r9znXAFElqyq7i5+eLL7744osvvvjiiy8ckMRD/3j8q4Yy+fU1om6sLve6KK5DGbxxbO9CdLp4CBAWfXt8/hrJ6RoiH3kY01XqKn3/OF9DW9DRASZRm+7JSzQh0i4Sjp8Z7W8xqOOjg/TvJ+d1F53uyHSNJvrksJ9EYxghmdJ6dFu7Y22+goeu+5Gz8s1jnODXt/Xvx4VFSDKfnx+/G05ikEQBaeO8rOzR7KrepekKvi+u4u9kf6YhH19RjUPV31VVglC1tHIHT/1w3Qy3OB4nfQSv5X8myhJ6BNsIxpPGvSIpqmPbl/O7/DlUDDnsxZRfdxfLNmOTiSr51SC+KoL2Zp07htKC966lom9GkHMP01khyz3vGklQVBh2aNrIu3puZ5lqQ/1nRv4UajrM0OCx5IoYM1VSSlYEXcv59wN2bfQLj+rNiNkdPxvf7SRTgRp14Z7luTabHfYRy8X/EkxR1JYbHkm7D90z6Y1KkrKy+QD1XpRQbdA/CvKHkDPkKzMSxtK4bRnYvQi3XrUJW1btwmfkCT2xr4nFvKhgOnb5J6OAt+Pkcrsl44gG8gJXPihcdgbZYtnaE6KhCbosfyrohZzT8s5D/q/Lik2kunrzzcmGsWrZRmmRtlz3+M1apDb6Lrfx47grW24BwkgiZWZXEDNFvnE4RveOv6SBGLJ5tLV+c34ytve3TZcEbFqcvM6rIicKrf68hCTcg6rN6JBDt1ReIweWYbb+hQlUTH9bMXP0jJg/kudTuEkJFsVhV3wQzHx7jqmtzM0pkFHQ2XRItXwQIKbbp5NC2pqD23eoKvcdtNUH8ZSYR0XXIrcJuqD/mJjRRbUoodN+29NsOqmgWTLXSdcyMbeNOJl36jJgnpgPwX6iwsHo0+2MXGzs55CyQGldTJEr6LifgK7rv0A/6eJmfRABc1JWvaCSe7ST5okgMHMwK+yD27oHLCm1uqaSGqQkmyyDf67uOebshRvnMB0jFFCyEJPk3KwYEnoyWHbC+/3B8FvA4s0VWz9PoPNzl3pZgJK6weHGgVjvElbz9Pld5FIObkcHt33Em2d6txeje75CFfP6D+RcXAkDvf7jLYP9PSC6X/jIETxZdR8G4PotRh9Oq+XzgJhjwXCC96On5zKY5HrBS7gbv/rnYIebCzMyWjdhvO4lRMxgbRuH/XBnzHq7ebLSsH2H1e2ZO3tZH0a/kkjlIWYTj+PhcKgwhmEYD+Nt4E6Dzcm57eRwAdZkMXsjyLrbuRIHKB5hFKjg79XVeO7yeQ6Czff9LyRZRDkLxY5ZPPaPIsSELTtDRAPmVUw369Ef4kzSSNd9KFoRo2CvNkraocEEC3fxDOKisGiGltw2iAy2DaoJmA7qu0NTvyKgLmx9HUu2NfdAPoCk5JskVGWlf23t0WKY6HpLI5+pn3UUG4uZ3iSW0oJwYe2FxePxuDb/mv5fX03/aR6Xophe9lwEDpvTZoco6e1qHaM8XWhMEusgk2PSKt+ykRzD620DSaOy19mvYqj1vRlOZ6BFrR7BjuxoBVXnsbnUll0+SdqXf7t6k0NhGMpkJ8OiH0vKRwPV5JDchBQY8QKCrBybIjTJilAx/t2U5r3xdoeThMIpg0S1i83jfLgDfyktx742/Ajymr+xLgpHTYbqkd3ZsBxylCKKUfO9o/F3TKy3t2Mm5LQTL+xP+TabB24F3BRlH7PrhvXsJz8saKYJiRm0Hff3pHAqnS/DRfAlLsWtiQeXLava1363+WCqb1CMJK6goHf1MYsjelmpuAAUluQJsDw9TdF2vTqnKBw+pHW7u/I7XsPrYUbd9eSTs5KFFTgC2VIsCbpmEYR4QdwoPGq/+MiBw6DynQdp1UCMz1coyz4/E0BBxoRzRrKZ3D9ZpRQ42BmNv0Yi8+5RcVZ/gKUIIL9304fsgqtGPz6YopPoLAvqF282Lq3M8NWF5KvWp2uUs31NJjMKjsfANAuQzYWESaGuWf79s0zRdSLdOOMmXbke57kMYO/QRTpY9U96mvwb35/i5vPc0ACbnKae2fY2lGcoM/rO1KZEuLPsh4eUmuLGRNc/SR+CXUAGb4ZrITJDoKtNhiOohDJypWqsQ0jp2wiTN18s017bZPwyiqLEd0z7wFkyKpAesfj9+UWwjteJf06Ixeisd+4Y8gUHyXTN/znO68jQQ1NRzGLhM1CwUda9N4jLvGU+xVFkvWAFK64Xm7lPNOF4mUmJT8hUOVv2mfoIjp6NQv8jVwu8g5gQ8IOey1JOGNjaFRyqaPGXuSYQ3dWdDkaliuGPhZ888hywo+O8BFEatWyL2YKrH/TjmoY0BxszBwLuUQ2u/LJd5GN7+VwQjkDQdYWWpwminrtmoWeBdqzQq1pqLYrjcr5KG4LFVqydYgSKJNrvWspY55Ko92OdkAgXXjpfdUAO41tf/cpEFI6TOVuXlXyV9cHDEfGLeXnm0Lj4Gpk0QE33na2TOdfIofUtI9gRjluSwoq77bzLAInjfbe+M4f22YP4rJPnD4volVQY+KpOjiMncumTGZlyVwLqAFNRo+IUxoEle8V2Zs8cFkfcwmoTFCzm1XWjISiMblEWo0+/omsZ+chRj8EW1O9sZi+k9+YefgoevGMlkRsBaxEtE9ONys6VkBZVPCcmz/I5DpyJ+YoDnz+1v/kRoPaT6fKi1ZKRLV+0boQD6iy/FHemz+xvYQtCm1YxiqlJw10J32k6gbHzkvvOMhVO20QKvrUBmqITDo2OJ/S127Hm+IyWtAHiK5dEpFR9oU3n0kmvbjYkG+vi2sAScrLsVkDC1SGtHMupP3V3dktiqqutlD/q8KuQqngxtGZT5K+batXVUadzYdVq03BXbsHqImIE0JcjTqD3rmqyTJFEW4qtVUwtlInVq6zphNL8c78ATES4slHY/uNKVXVhbJGYVmYLjlQYOk2SIOq+fLjb8SEtulPgtxbm3h1HW9sjVQ7wo643ly3Hp/4d7R9GJzsGyZszz7aqVj/3THJqH+Lp+pIfVyz4X3xg7ykwb8Tl7H4JKKCUh6haBNjN5xPpVWLw1YdDAvPIw/jZ+cPvED3EBW2nxHDk2ov9pY8w0dWtf9dCkBR+JhfOjW2iSpG+XKl9cEYidWewnLXBPGALAMp5tuBO0kksQvXsILuRtzWsIaMSOopcCqrfRimW5SyMtoxR0ok9jwpbZiW6NTXyMa02vJ5nG4A7EWTcHbWIxk5e0lkRci1edkEku2AGxop6fMU9GYOaD/L2dIo7k2a5q9qVrf35xiul1Y/u7+UgSHk75PX6TPTqCoPk+b9nfgHWOtjA2Uk/RSk3z3p/t8GzpwiqLhUWyEDyG06L3KkH0rEfuCEs66m6x60ipPeBuo1crozGBAvxFqSduKMEs/uEqgelIk5V2JoQgVp6VkkeuqZ+E5SOeAhdzrDDYIh8Lxp4ISswcE9uSHml60M52YLC8VM8xVw1fShkUzpvRcVJFq56kNlm2QdPpFWbjRoXEjWfLE05qb4M8sO+jUDPyv4AaCHHbDh33GTFyUxn0Y16t1N0+XARcqD3HkV+DWGFbD+eIWBKdAVFp0D4Nuuqaenj9laklYX3rU4c7FcnVwz8H1VllaZUGUJPdL19CemocyKpQNehFBsmeCKrDPkVoX9SQh02CXn9y9YAp4eRvDx5qo/q3BFFzyP71WXL9TLWP0l3Gizk6Ml/7f+6IiWvjFNKyfz1vakOcEC0umy5h9UQprul5Ap5ly1I/T9HTIm0JXnkyoXHcIrjuM2zJE3TJMIIkjTJurKNT+dK9iNtuRTMct+uuJGEHBZBtRkmPYR9hAvkKEgBICkCXL/AZdy6fCqoHIb5IravUpVKp/33yktK/3ZT8QfVz0M39oX3ZPHXgoR1M5YJMKS3r9+EA22SJUq7W3Ul1uBX4uL9Owk42aSS6VSWfHlPUusVsMylfBiZ5u2p6u+FF7ovZOThkqv+HOeK+QF/b/OHL1ANpNMNCILJZIxckLomYkuVjXXNW6U/8jw1xVWJvFa2xGNl9wzgyA0/x8lqcqTH45G317HXkbGdv7kOYuOwpvd5ljeczwin3Nn91DcwC94BWFV2883r3GY9OTjzZEGR0p7nL5K4Xkc710A6TrBstbHyUoViIbC67UPVsrTj4rlyb5w13njGsJoFIDzfuI0FU7TLQSUk5JQUuq3xjIrE4Vb8AXoXFZHwAFmkcDiJaCXs3kV/WiAfrZyj8uMGzsPjvbyWNiZGsaLJ/waODeh40yDGsuZn4Kv8Q2qPXOtAP4SIbbrVNcV3IuHM8z576/2O2K54W+3QrwBst/X0ndwoUXRNXDf7Tpv/04BWn+tiir6J1VM9MJ1U+afRuUcQHVe3hbZRFzHsSUyXz6rUJhf1g8Eizm29vaeaKmsMRbfu3uxL2/YTfK5FtpIdcwyu/nOL9kc92nc0EbtSQY4fjwTn1nUVMjGfojG8HZ1772gMUVu6UPKq4t8e3AMgU7iJqZSROY6cOXvbNsF07h09IdLYpm6eDaum2TYZ9EQrzvSh2831Z9uIou19BGLra0p+ChOfz3WOFjz2ZeNTFNdnFd042QY1yVVIvDZLO2mqbO30qSASz1slEYq0S1fiZRag7CSzt6xq5QfDEb0T9ZLYi/578YS2+iAY1XcxiSE/FQ42sTS9S+0U3lGd+RYw4pe9FXgmkVSlR8Cd5edsWXceeMGbP5AceNE2yyk1xkJKe59YfpSjJVgBc7L11hSdn8y+tfyoZnRVd2GmPJvTuLnZPdz4aSgErHuIKXpUKb4z505SRLjfzDwDwRsJbL5mBdlSp9ZH8UUW0qhoTjIXOay0KwTQEmxrPYvBCzKU6o18ULuL/TNPiEJdxcRVSRmloLtcn1L2WZz40utzvPuOaVup7Fe08MR1jYtc9zE9tk441XMXk/kjlx2hsJ6A9BaHi43iMo2LjLtNXh61cA4dC9g/jmSxfQN6rEVpJ50ppsr9RF3AZ1F6Vvh3BwfmONhbM2/+VAkJsXmYCBWO4XDSWwTdODuiIZ8/Q9TzQ9OTxW1IDgbi6toDgv8c0aCwRKe/L4cnOUtR26jtqBHqd8BJ1JCeHiEQm4rm9Ctbl96qO7uI7xXV1uxSC4K8jU9x2b1EPTt27ekwnsr9TeQXX3zxxRdffPHFF1988cXWiIIJx4Bg8ycqfg7nuiiKuq7x/xX1o9mwjvSTOKipmyni/3Q3gk1wmDUqRR/hnA1e7XnbEWaomOoz+xZLZ34JfJS7YZEYEbM4DBiH/hp+ikOIDzk3pD9hMSWpUkYJfTtNYF9ismoT9QD92LVxnM9OioKujNt2/jr+Ro7fAgMVpUdSo47G6DjhjaN3BhFTEYoQIsRp5PF0pUnXuleOPnEultSrho029cGN5XrDO21GlIWslhWftNXhFqdGczFJlSOn15XiGWdIsH9y5aBebcZVSseiqMbWSW077UYbfzPmYhKiItAURzpkroLpJKfakZD8YI5BlQnvclVMfx9iklIq9jwI2jkWFc2/Kzm+RKxFMtlpKJxcp1ArpBmYgQprdpQyrYtsWq5k0eLz4XAni5awa2kTKFKDii5kXMGIX2f0xSRExYEon3SkArC9TJuro6oLfqK8YsYpSlPS7BKNR9LP5C/lY5iLSQl8xLXFB/ViQRKuOGNIjaLVGKlJAtIPYWpwRmYX+t5A9/MeDIoiJqEIEU4oIUVJlciYVWOgSpAVTGeZTKakY1r+TMadiUmfLUVLEDH/VDloxnM1f6YBYR5Suh+ZfqMLtQcxHz+k/0+UdowIRHkfZNB4AdJ3mUmVzjzpy4T7TLm4+D6Y2RQ7EFO0eQbDQZcd2WhTFFrUDGQX0o0X3fqCcU/Id4mYAfm30c3ZhZiqFWTF0+YnoFCzdwq1RiVETKKZzeHN/sS8sgQCJbixPk94pulf7Q+v+WIdoLiYpCLe3D1hF2Li3jesU5VE7CfMrSFmuN3of45MBaP7GHcYN743I7J+jYSFPYhZlGWH/1cJk4mBTbrx8Vg9km9H4nMVdLEGz1jMDSvlVYNChsmbWZCSVFNVBZlmzhCRxCSuntQMI+K3jIi5HdeLzCYv3CPVYtxUkg6BcnVKxkIuvGlFqDYKg0JXs/AgKgSPMh50G/y3UMWk/WK45SMCiKdLn0LWXQ330uYrMBeallWcoJ6SbdIecXoqudR2NExNTMo35TaBlJ5MgfM5buMKU90oe5qsTUpRiw6eLCal76O6mRRWX0sqjbhK6NJmZb/FnOpiEr4prydNCxZuQtaPDjpjwlyaC/IVMSdHHoHqpn/ATmV1aNPLW9RQ6WJSvcNTXkf1ASmIlffxJ48QH7aWxPzJCqVr8hVWvGgl4FJZ+G4csLlUGgX1mGsnFMy54OlbVHOL0Nb8xepn+tsX9WUBdITF2SDpYeotf3mDVdv+m6D8btDjlyQTVw5XPF+PqpVWW3TqCy+sr8O0WavpG3J8FsXVZZq7e6M2Lw3OeN6LfjdEaVdsXKj4xRdffPHFF1988f+B/wGT29X8GCy+eAAAAABJRU5ErkJggg==;" parent="1" vertex="1">
                    <mxGeometry x="57.49" y="70" width="105.03" height="100" as="geometry"/>
                </mxCell>
                <mxCell id="33" style="edgeStyle=none;html=1;exitX=0.5;exitY=0;exitDx=0;exitDy=0;entryX=0.5;entryY=1;entryDx=0;entryDy=0;" parent="1" source="13" target="2" edge="1">
                    <mxGeometry relative="1" as="geometry"/>
                </mxCell>
                <mxCell id="34" value="Run Flask API + DB" style="edgeStyle=none;html=1;exitX=1;exitY=0;exitDx=0;exitDy=0;entryX=0;entryY=1;entryDx=0;entryDy=0;" parent="1" source="13" target="15" edge="1">
                    <mxGeometry relative="1" as="geometry"/>
                </mxCell>
                <mxCell id="13" value="Docker" style="rounded=0;whiteSpace=wrap;html=1;labelPosition=center;verticalLabelPosition=bottom;align=center;verticalAlign=top;fillColor=none;" parent="1" vertex="1">
                    <mxGeometry x="30" y="230" width="160" height="110" as="geometry"/>
                </mxCell>
                <mxCell id="31" value="SQL Queries" style="edgeStyle=none;html=1;exitX=0.5;exitY=1;exitDx=0;exitDy=0;entryX=0.5;entryY=0;entryDx=0;entryDy=0;" parent="1" source="15" target="30" edge="1">
                    <mxGeometry relative="1" as="geometry"/>
                </mxCell>
                <mxCell id="15" value="Backend" style="rounded=0;whiteSpace=wrap;html=1;labelPosition=center;verticalLabelPosition=top;align=center;verticalAlign=bottom;fillColor=none;" parent="1" vertex="1">
                    <mxGeometry x="339" y="8" width="160" height="110" as="geometry"/>
                </mxCell>
                <mxCell id="17" value="" style="shape=image;verticalLabelPosition=bottom;labelBackgroundColor=default;verticalAlign=top;aspect=fixed;imageAspect=0;image=data:image/jpeg,/9j/4AAQSkZJRgABAQAAAQABAAD/2wCEAAkGBxINEA0NEA0PDQ4PDw0NDw0ODg8ODQ4NFxUWGBYRFRUYHCggGRolGxYTITEhJSkrLzEuFyAzOD8tNygtLjcBCgoKDg0OGhAQFy0lHiUtNzUrKysrKzArLS0rKysrKy0tKy0tLS0rLS0tLy0rLS0rLS0rLS0uKy0tLS4rLS0rLf/AABEIAOsA1gMBEQACEQEDEQH/xAAcAAEAAgMBAQEAAAAAAAAAAAAAAQIEBQYHAwj/xABKEAACAQMABAcJCwoHAQAAAAAAAQIDBBEFEiExBhNRcYGRsQcUIjJBUlRhomNyc5Sho7LB0dLjFyQzNFNigpLh8BUWQoOzwvEj/8QAGgEBAQADAQEAAAAAAAAAAAAAAAECBAUDBv/EADoRAQABAgIECwYGAwADAAAAAAABAgMEERIhMVIFExQyQVFhcYGhsTORwdHh8BUjNEJiolNjkiJy8f/aAAwDAQACEQMRAD8A9xAAAAAAAA0emuFNvZtwcnVqrfSpYbi/3nuXNvPe3h669fQ8LmIoo1dLlL3h7cTyqVKlRXK81Z9exfIbdODojbObUqxlc7Iyaa44S3lTxruqveatL6CR6xYtx+15TfuT+5gVdIVp+NcVpe+rVJdrPSKKY6IeenVPTPvY05t723ztsqZqKbW5tczwB9YX9WHi160fe1Zx7GYzTTPQy06uuWXQ4SXlPxbyv/HPjfp5MJs25/bDOL1yNlUtxo/uhXVNpVY07mPlyuKqdcdnsnlVhKJ2anrTi64263c6A4TW9+sU5OFVLMqFTEaiXKvJJetdODSuWare3Y3bd6m5s2t0eT1AAAAAAAAAAAAAAAAADmeHGnJWlKNKlLVrVtbwlvp01vkuRvKS6eQ2sNaiurOdkNXFXZopyjbLzJs6bmM2y0NcXEdelb1KkfPSUYvmbwn0HnVdop1TL0ptV1RnEMO7tp0ZOnVpzpTW3VnFxeOVZ3r1mVNUVRnEsaqZpnKYfBsyYqtkVVsCrYFWFVYE06soSjOEnCcWpRnFtSjJeVMkxnqkictcPXeBHCX/ABCk41MK5o4VRLYqkXuqJdq8j50cy/Z4udWx1LF7jI17XSmu9wAAAAAAAAAAAAAAAB5f3QK2tezj+zp0oLqcv+x1MJGVty8XOdxruDNhG6u6FGe2DcpzXLGKctXpwl0npermiiZh52aNOuIl7BCKilFJJJJJJYSS3JI47sNLwx0ZG5tK2UuMpQnWpS/1RlFZazyNLD/oe2HrmmuO144iiK6J7Hj7Z1nJVbAq2BVhVWBVsgq2BueBukHbX1rNPEZzVvNcsKjUdvqUtV/wnlfp0rcw9bNWjcifvW9uOS6wAAAAAAAAAAAAAAAA8n4cv8/uf9n/AIoHWw3so++lycT7Wfvoa7QmkXaXFG4xrKEnrRW+UGmpJevDfTgzuUadM0sLdehVFT2DR9/SuYKrRqRqRflT2p8jW9P1M5FVFVM5TDr0101RnEue4ccIadChVtoTU69WMqTjF54uEliUpcjxnC37TYw9maqoqnZDXxN6KaZpjbLyxs6TmqtgVbCqsCGwKtkFWwr76Mf5xbfD0PpxMa+bPctHOjvfoE4zsgAAAAAAAAAAAAAAADybhz+v3P8As/8AFA62G9lH30uTifaz99DQNnu8FckVQCrYFWwqGBVsCrZBVsKq2B99GP8AOLb4eh9OJjXzZ7lo50d79BnGdkAAAAAAAAAAAAAAAAcjp7gU7y4q3PfSp8ZqeBxGvjVio79dZ3cht2sVoUxTo+bUu4XTqmrS8mv/ACcP05fFvxD05b/Hz+jz5FO95fVH5N36cvi34g5b/Hz+hyKd7y+qPyav05fFvxCct/j5/Q5FO95fVH5NH6evi34g5b/Hz+i8ine8vqj8mb9PXxX8Qct/j5/Q5HO95fVwd7Q4qrWpZ1uKqVKWtjGtqycc48m43KZziJadUZTMMdsqKtgVbCqtgZGi3+cW3w9D6cTGvmz3MqOdHe/QhxnYAAAAAAAAAACtSagnKUlGMU25SaUUuVt7hEZ7CZy2uR0tw7p024W9N12tnGSbhSz6vLL5Dct4OqddU5NO5jKY1Uxm5244a3k91SnS9UKUWvbybEYW3HQ15xVyel8HwwvvSvmaH3DLk1rq9WPKbu95Qq+GN96V8zQ+4OTWur1OU3d70Q+GV96V8zQ+4OTWt31OU3d70VfDO+9K+Zt/uE5Na3fVeU3d7yhD4Z3/AKV8zb/cHJrW76nKbu96Kvhpf+l/M2/3Bya1u+pyi7veiHw1v/S/mbf7g5Na6vU5Rd3vRV8Nb/0v5i3+4OTWur1OUXd70aGvWdSU6knmc5SnJ4SzKTy3hets9ojKMoeUznOb5NhFWwqjYFWwMjRf6xbfD0PpxMa+bPcyp50d73+8qOMcp4eUvIfM4+7XataVE5Tm7lqmKqspYXfU/O+SP2HG/EMRv+UfJs8VR1HfU/O+SP2D8QxG/wCUfI4qjqWjeyW/EujB6UcJ3qedlP32MZsUzsZlC4U92x+VM7GGxlF+NWqep4V25pfY2nmAAAESaSbbwltbexJAeXcLOEcr2bpwbjbQfgx3ca1/rl9S+s6tixFuM52uViL83JyjY51mw10NgVbAo2BVsiqtgVbAqwqGBVsgq2BVsKq2BVsCrZBk6K/WLb4eh9OJK+bPcyp50d732/8AE/iR8rwp7Dxd6xzmuPnm2jIEEVMZuLTTw0Wi5VRVFVM64JpiYylt6FXXipda5GfV4e/F63FcfcufXTozk+h7sQABy/dA0k6NsqMXidw3B8vFLbPrzFc0mbWEo0q856Gri7mjRlHS8zZ03MQ2BVsCrYFWyKq2BVsCrYVVgVbIKtgVbCqtgVbAq2BBBlaK/WLb4eh9OJK+bPcyp50d733SHidKPleFPYeLvWOc1uT51toyRUNkVGSDM0XU2yhyrWXP/fYdfgi9lXVbnp1/f30NfEU6olsjvtQAAeZ90O617tU87KNKEcck5Zk/kcOo6eEpyt59bmYurO5l1OWbNpqqtgVbAq2RVWwKtgVbCqsCGyCjYFWwqrYFWwKtgQQANtwTs3cX1lTX7enUl7yD15fJFmF2rRomXpap0q4h7dpKXgxXK89X/p8lwtXlbpp659P/AK7uHjXMtfk4LbVyYqjJFRkg+lrPVnB+tLoew2MHc0L9FXb66mNynOiYbw+wc0AAeN8I6/GXd3P3apFc0Xqr5Io7NmMrcR2ONenO5VPa1jZ6PNVsCrZFVbAq2BVsKqwIbAq2QVbCqtgVbAq2BUgAAPVO5jwclbwlfVouNStHUowksShQeG5NeRywuhLlZoYq7nOjDfw1rKNKXTXlbXk8blsX2nxePxHHXZmNkaodm1Ro0sfJpPVDZM1VyYqjJMxGSZq6GnLKT5UmfcW69OiKuuHKmMpyWM0APDLmprTnLzpzl1ts7kRlGThzOczL5NlRVsiqtgUbAq2FQwKtgZlpoi4rpOla16kXunGlPUf8WMGFVymnbLOm3VVshkvgrfehVuqP2mHH295lxFzdVfBS+9CrdUftHH295eIubqHwTvvQq3s/aOPt7xxFzdVfBO+9BrdUftHH2944i5uo/wApX/oNb2ftHH2944m5uo/ylf8AoNb2ftHH2944m5usi14D39Vpd6umvPq1KcIrnWW+pGM4i3HSsYe5PQ7fgz3PKVtKNa6krmrHEo00mreEuXD2zfPherymrdxU1RlTqhtWsLFOurXLp727zmEXzy+pHzOP4QiYm3anvn4R83UtWempgZOI2kZIIIqMkzVBFRkxG9snmnT96l1H2WBnPDUdzmXoyrl9zbeYB4RUWG1yNrqO5Dhyo2BVsCrYFWwqrAzND6Kq31VUaMcy3yk9kKcfOk/IjCu5FEZyzoomucoepaC4H21ilOUVXrLDdaqk1F/uReyPb6zmXsVMxMzOUOjaw1NPRnLdzvYrdmXNuORc4Ts06qc5++1uxYqlTv8AXmvrR5fi1O5LLiJ6zv8AXmvrQ/FqdyTiJ6zv9ea+tD8Wp3JOInrO/wBea+tD8Wo3JOInrO/15r60T8Wo3JOTz1o/xBea+tD8Xo3JOTz1qy0jyQ62edXDG7R75WMP1yxq11KexvC5FsRz7+NvXtVU6uqNj3otU07Hwyab0Rkiq5IIMVCKrkgjJFb3R/6KHM+1n2HBv6Wju+LmX/aSyTeeQB4jpmlxdzdQ82vWiubXePkwdq3OdET2OLcjKuY7WC2ZMVWwKtgVYVNKnKpKNOEXKc5RhGK3ym3hJdJJnKM5IjPVD2ng7oeGjbdU1hzaUq1Rb6lT1epbkv6nFxWJiIm5Vsh2LFnRiKY2rVqzm8vd5F5EfKYjE136s6tnRHU6NFEUxqfM12YAAARkgjJFQ2RUZIKtmOaoIqMkzVBBGSZqhsxVDZFVbIOis44p01+7HsPtsFTo4eiOyPRyrs51z3vsbTzAPJOHttxV9Wfkqxp1lzOOq/ajI6uGqztw5WJpyuS5xs93gq2BVsKhgdT3NrFVr3jGsxt6c6q5OMfgx+RyfQa2Kqyoy62zhac68+p6ZpCptUeTa+c+R4Vu51RbjvduxTqzYZyGwAAAEEVGSCuTFUZIqMkEEVBFQYqjJMxXJFQ2RUZIqacdaUY+c0usyt0TcriiOmcvelU6MTLpksbD72IyjKHGSUAOB7qVlstrpLc5UJvn8KHZPrN7B1baWjjKdlTz5s3miq2FVYFWyDve5IvDvn+5bdtT7DTxmyn76m5g9tXh8Xa3vjy6Ow+L4Q/UVeHpDt2uZD4Gk9QCMkEZIqMkVGSCGyZqrkxVGSZiCKgioyRUZIIbMVVbIqCKztD0tapreSCz0vYvrOtwNY07+nOymPOdUfFrYqvKjLrbw+sc0AAYOnNGxvLetby2a8fBl5tRbYy6GkZ269CqKmFyjTpml4jdUJUZzpVIuFSEnCUX5JL+952ImJjOHImJicpfBlRDYFWyDvu5H49/7217app4zZT4/Bu4PbV4fF2l548ujsR8Xwh+oq8PSHbtcyHxNJ6IyRUZIKtkVDZiqMkEEVGSZqgioyYiMkVVsioyQRkioIqCDodHW/FwSfjS8KXqfIfZ8G4Xk9iInnTrn5eDlX7mnXq2Mo6DxAAADl+GHBON+uOpuNO6isaz8SrFbozxufI+3ybFi/NvVOxr37EXNcbXluktHVrSWpXozovOFrLwZe9ktkuhnRprpq10y51VFVHOhhtmTFVsK7/uRePf+9te2qaWM2U+PwbmD21eHxdre+PLo7EfF8IfqKvD0h27PMhjmk9UNmKoyQRkioyRVckzEGOahFVyTMRkiobJmqGzFUZJmIIolnYtr5FtZYiZnKNpOptdHaOaanUWMbYw8ueVn0HBvBVUVRdvRs2R8Z+TSv4iMtGn3tqfRNEAAAAACs4KScZJST3ppNPoAwZ6CtJPLsrVvldvSb7DPja96few4qif2x7lf8v2foFp8Wo/dLxte9PvTire7HuZFno6jb6zo29Gg5YUnSpQp62M4zqrbjL6zGquqrbLKmimnZGTEvv0kujsR8twj+oq8PSHQs8yGO2aL1RkgrkxzVBFQ2SZVtqTpasc8VnCznUznB9NanA8XTpaGeUZ81o1cbnOWfmtmj7j7BnngP8AX/Vj+d2+Zmj7j7Az4P8A9f8AVfzu3zRmh7j7Az4P/wBf9T87t8zND3H2CZ8H/wCv+ple7fMXEe4+wIng+Zyji/6n53b5vt3rD9nD+SJs8jw/+On/AJj5PPja96fejvWn+zh/JEcjw/8Aip/5j5Lxte9PvO9af7OH8kRyPD/4qf8AmPkcbXvT730hTUd0VHmSR7UW6KObTEd0MJqmdsrGaAAAAAAAAAAAA1N/+kl0diPl+Ef1NXh6Q3rPMhjZNB7IyQQRUEVBiqMkzFckVGSKjJFRkxFqPjQ99HtPSz7Wnvj1Srmy6c++cYAAAAAAAAAAAAAAAAae/wD0kv4exHyvCX6mrw9Ib9jmQxsmg9kZJmIIqCKjJFRkghsxVkWVo6ze3EVvl9SN7A4GrFVTrypjbPwj71PK7ei3HazpaJhjZKSfK8NdWDsVcB2ZpypqmJ8PTJrRi6s9cQ1VxRdOThLeuprlPncRh67Fybde317W7RXFdOcK0fGh76PaYWPa098eq182XUH37jAAAAAAAAAAAAAAAADUaSjio3ypP6vqPl+FadHETPXEfL4N/DznQxMnNze6CKjJiIyRVWyKjJBGSK3eh2uK2b9aWef/AMwfWcDTE4bV1zn992TnYrPjGcdVrNPpxrWhy6rzzZ2fWfM8PTHGUR05T66vi38HnoywbWOtOmuWUerO05OFomu/RTHXHq2bk5UTPY6Y+8ccAAAAAAAAAAAAAAAAYt/b8ZHK8aO1etchzuEcJN+3nTzo2dvY9rFzQnXsaZnyk6nRVyQRkiobIqMmKoyQQRX3s7uVJ5W1PfF7mbmDxtzC1Z064nbH3seV21FyNbPlphY2U3n1tYOvVw9To/8AjbnPtnU1owc565autVc5OUnlv+8HAvXq71c11zrluU0xTGUNnoe0x/8AWS8mIL/sd7gbBTH59cf+vz+TTxV39keLan0LSAAAAAAAAAAAAAAAAADFu7GNTavBly+R86OdjODbeI/8o1VdfX3ve1fmjV0NVXtJw3xyvOW1HzuIwN+zzqdXXGuPp4t2i7RVsljZNLN6obIqCKggAAPrRt5VPFi36/J1nvYw12/P5dMz29Hv2MK7lNHOltLTRajiU2pPzV4q5+U+gwfA1NE6d6c56uj6+jSu4qZ1U6myO41AAAAAAAAAAAAAAAAAAAAAHxq2sJ+NBP17n1o1buCsXefRHfsn3xrelN2unZLFnomD3OUelNfKaFfAlirmzMePzh7Ri642xD5PQ3JU645+s16uAY6Lnl9YZxjP4+YtDe6+x/UkcA9d3+v1Xln8fN9IaIgt8pPqSPejgOxHOqmfd8mE4uvoiGTSsacd0E/XLwu03rXB2Gt7KI8dfq8ar9yrbLIN15AAAAAAAAAAAAAAAAAAAAAAAAAAAAAAAAAAAAAAAAAAAAAAAAAAAAAyBGsBGuBGuA4wBxgDjAJ1wJ1gGQJAAAAAAAAAAAAAAAAAAFGwKtgUbAq5ARrARrANYBrAWUgJTAumBZMC6YEgAAAAAAAAAAAAAAAIcQKOAFXACrgBGoBGoA1AGoBKgBZQAsoAXUQLAAAAAAAAAAAAAAAAAAAAAYAjAEYAYAnADAEgAAAAAAAAAAAAA//Z;" parent="1" vertex="1">
                    <mxGeometry x="345" y="18" width="77.4" height="85" as="geometry"/>
                </mxCell>
                <mxCell id="18" value="" style="shape=image;verticalLabelPosition=bottom;labelBackgroundColor=default;verticalAlign=top;aspect=fixed;imageAspect=0;image=data:image/png,iVBORw0KGgoAAAANSUhEUgAAAMYAAAD/CAMAAACdMFkKAAAAe1BMVEX///8AAACSkpLHx8e7u7sLCwv19fXg4ODp6en7+/v5+fns7Ozw8PBmZmbNzc3Z2dnV1dWIiIjQ0NB1dXU9PT1sbGxSUlJbW1udnZ1JSUmrq6tgYGChoaEfHx97e3u3t7csLCw0NDRNTU0ZGRmHh4coKCg7OzsWFhYzMzPAGFf4AAAXVklEQVR4nO1daXuqPBMmAQWVRWURWdW69P//wjeTBRII2D6nCn2vzodzWqrt3Elmn4yGoaXsgk6PMND/8LeQg1BK/qvQdWpO/ok+KArDSFA9MSf/QjZC7IsARdNy8k8UoHhlmVvHzQSe30nIqxCjx9Ss/AthlHEY8dSs/BOVHzcGw5yak38il2/GrxYNIO//AwbHYU/Nxr+STWGcfjuOgEtHmeTJvST/V+upWfovlBAIRyTTYWqW/gOFhO8wJ//cTMe+UhiLqXn6Nq2SZg92zja7068uU3P1XdojHRVTs/VNwloUvy34yPUoiIxvpmbtG5R2uc9aXHn9a5BcuzDIM7Nqv71Umb+cmskv0KUDg21AvZCfRdbETD4nvwMj5c8T5ensI5GlzG2OF4geIefREZrZhyKC0c+UOoZRpDwVNHf96zA2sRNkGBf13mTeVNyBcazn7f2yOLzKPlqWT3vDOINAZPvtXSM2M6R19/QI5VSw1T8rT+eqsZYnHQavZqZi2bOO+WpihnW06dlw9NjVbUp6vXZ6L5iZylriruFDi8py2Q+vXDFVhtnDcfSnY7pHVpe70HJdM8PXXUEFnOG4omVXZdFDh52J2eek2u4ytR3JJUQ1cd7p0SJRoayqokNc7XZ4V3nH4yyk/VNGUdj4AykUkXAWXia+DQvsqzkGAjTcT8K6RI0HkkSaM8Po04bNOGATDpDDt8fa8t9AM0KL1J0OAxBlNPfX2SAKQoessdyg0ohmQ00lx+avyScttaWgcexesCEdq1ThD15pGXH7rG5eeZkSyDKrFoMY8robKZlEmAIbtw/O0svDt3Iu0Xo3vA8VGDgbH0o4/ENSXLSvvxTJRMnfQYngR2n7gVLfup93Qyhkq1O6xuY0xcFKtBBOV4vp1NU2feJxEG2bh60TQM4aenvKd33rIbiHxb7lw39iD8wTT/Bud1y8SuP49ii3i+IuuPYtokZv49lCO6XOSfP9niVRYpGKeBt5MgRYzUj43tmaWoPhdd3iW3OKWtrj5IEu2St57lPrsYYkLGWyjnl0QURiU2RareOaqSRR0/u4JWMkZicpZN/RpVwhXVFjZZtZ1UrzLTMJnMn9W5Y9T8RBZmET05YmMJvwHywtXIVVqFZuogOJxgPiVk6eE93xo73eRZ/hRmyOONiY+0xWL6KKs22jymo0ecvShckwJBKYSmJuldgE+xAqFpodJKyKizu9bDwIWy70TqEdf7KyqpvspnZBdPQS0PQNS4jFQ2go6dRxUyInAwXdifSmr0QRR/XIy8f8ycb2syry4MtVbycoVjsLVdV06+3Puymm/FPjwWuUzNetyMNQ4r+sdt4xGmD3Vr2PYT3VVL+ymIf1JLDSXy5UaykyIXrb4EBsgbx3sqwjUFFh42fHvhs81GOUiIqmPj14gLM4g2IznCHHR+hs12iEIn2ugATjhrVC5zcz3SdwOe4bkN7PYRCDSagM5aujM4cOBvCsh7M6vmHWIyVLD2XmzpxD45U9CIEQl93BUK5Ewc7Ec4Bh6A5TvLWyYncWHu5gDEtcAGTcqSMwNfW9DThm1DvE6EkJnOxXAspuBgU0VwVwYxbj8BGuiT0Rlcqt/r2I1jfO07u4hJQgguzCFvFGYjDu3OrRxC3qRaaY+sLFLGo1ivsXrYlJAworGmjn/EXE8zLivPdeqon9WdQAO4UwEjltmSk8h+12xLDiAxrL7m/TFAQhX906IfEiYY5UGaGmtkcQXYb00WYepeUd+ijLJhH9UFqqRFIh7afKAwHLbWKuSclHl4NO6xJaNBp3j05d71DAcqfLocu00iI41bbA4KYmgZCWnfcJUXFm0t161KFofupUgY3vST9vYPPtsGdy7UbqkrSWZi4MCCeyWUfHsM+LnnXg0eB+Di6uoZaT8YoVAnm2I7BY9YKYc2fXDWIDdqysWfiGRr9biqhZIc9luafJq8ew30S02Dw62KmBoNa82tD/GiW0IT+LDRfyOhpTzbKe8QyyuJQw3QDEDg/Y7saeVVsjQQvCrosHXQ4zQgOu45sJnMCFzUosoVR4SRwD3bfxUEJBUDYLp0p21k1e8LgYy9QBb8mCaOJJWGROnzdk1FbOYskVOWy29L9n7zbn0kEp9T03dCcPTdDFd+NqqFDWrWZaupC0mzzhxoh65lEpdgT+yWm6wclA7AMjU7w/ByxhTFWwb9dEQ8zDjLOY4yhnST7hMXSvmszoLY1tK+cuyAKrEGROAs7MBDzriAh1guRuW+YW7iT+fMtp3BEbtooWc4o1TSrMpP0+RGcDmY3GWjB7trtIdT03UqJxHy08Cms3i7oZIyIcm+2x2Y4H9WfBoBM8VwNTkUbOTsIBmhnijKUPWYh5GA5IKmMjd1vpAA4hhUUeEXS03hznhuSSgA4TviLuV9ImIqKliOtktB2RpUs5JfsUGhtytBJsIsdr3S1AzPYm36G5aFzwYrFhKdmelfFBYJjcwdotDHTZS9IsYKzRIkMfU/HdIVj5tb0SQp6m4B+Sh2TVaegR7msiOXDMhI0AOTLpO13j9MTreh8hKCqbBm9Sh0QJOT51ThYbeE3AteI3ArkDteEwigwU3Tx8XF7N3LpN4fIhgm+QauhzufGOwrP4wZ4dMGz4JHKaRcbNYKFqZmDhkBA6BdCgm6N8y7bIo+ldSbdG1ABuNzY5WLO57cQWXGCIdvhMzoxyhyAj39qGNkU4k6yCwbzcbaOqPNu8Qf0F35FFMyd5DJ7TGryrDoFtPM2hVEMJTkzcSS9UYMqPMTphydHqkm04RMZnYsdZSnpphAoOg/cwWGt8LAczzikBO3mrgqCUuhfqRRPQqIH4YpBsYl1mIxxLtvzdU8UsxDOvaRYFQEYetW1KLyicqvqzQmWQjLtN1VzSCtQhOaPOzRpMDcqC6LCm501LJnQ0zYRKVFSHXoMxpSOx5KPVmNlEgKBciRubKdtB5Jf1H7p4vIzvzcYfgSXdb5Ev156A8zVYjcBifshQ1rme0anaoYORIzlrxc1BsIc4CdYbMzvX00vu2/vSh4nw4m5UoWirTNx4sO1Y9to9P+dRkKUUEzlW7Xgr19WI7fAdspPTt4cJsmm8p9BdeEtLkVWj1+RUvZSWYP7nUeYASogZk3qTPIrpylTUOsmNVe0YF3TbGuoNoT1yHDSP+jgl4kApvUk8VVIxIMwgQoRrrtS1R3tjHv1hnC5EUnX2bwdJAzApD+Y8ElGRzUixBZCTt3k3RMKOgTk8eCXPtrHcjjlcx3CraTZ0IbZCC4PsiN0C9IyD6pwzcFNx3aOAdeYyOupv0xEXEoHPKHVYseh3NlEHtDofm1k8H2ttLyLxO1AFMtKmp8yM5k9m466D3aiNpjfXajtKLMPOuL/1KNgXSuhKnZjZ+Llgxlf9tp6Fg2ka2qwkT15uQbJpym42CSvwrDy5d8+CgxWTKJV7t5Iikz3ED3LSznO4PicIgxco5RYyZ9HoIJf7v8QGnirFpyUeV2rOaoougrIAZsxSUcgb4W1KB7pauO0Tb2Y+x6qmhRci5pG0J9y/3Qrpv2mk2YYE4nyMR0T1EpJxXFmd6ePWqq5+UAseSzybRChFsKSdxbdGLzHl6sotffoC7OfpjZyO0xUuMXZu2JzYKZIHuWFdaG7PoxWUEigoVtBo9O6Vr74SHka5IgoBZLOq+WRJQCY2yn2CD2d1pRq26wArpvyR0i7LmdT7qU8edW7bVLxQ2fWz5DPkwObU83FK+H1fdem5weteS+uFSxHrnZkDAa92ry00pkBIuP4Z4AXC3JFX3ujSlqD+NYmJiOjbZN9vGct4DYHwaeaL5llLsDfpfBIMcKwCzXzcu7h/SvjdnhCUdxQHhOYaovlE5iaV8h4M4qls2FDsknC6i7vKylhitmFzqflXdPCRggCzIW/JWXxvGBZOO70WkCYFmzMXrwQaezrTTCuLi7XJU+9hP1l4hY0gB28uHTE2OOTKRAjYjNIMcioaLtupY7fA6dLcQoFmUyzIQOmqQxsj4ix+MofxmHKv/SPrvq1mb55L8BGjE+EnbpHAQxsG7QES9phqXazIx5Vm3tKu8E9HNxYvNW4t95ZWdLppZtQnAODW5Lud7O6yYDGfzcxZl3HehoGNRNtFCe6URa/bGEWoKZ7nPWU8GfnsxkB7qzxtkx8eXEFZVSd0T31n7ffSbVQtz6QREdNpCQFq6cimgdKjtCiIM7tsmgI+FK1lg4mci76K6MHozKl7tBc3oyqVLhooygmjw2aBHrOoQy3Z/Rpp7qHaAhCrCeuTHGvwbOkcLjHDgQLD4Phi0S81P0V06lm0NGoFmLz4PAUxC4VlceFFAxT69nkIB9mPK9Fz5zmUzTO2nv2xvgMkO4VEqGLoOZtDngHuKK+f4rgaGxNfiKlcyDYdnMtbPnJX+42UMkHVfcqIAxPckuDCB3QVYGLUWr/QDjOo4kA+pO7NY678EN2XhpOjA+grq0lWq5N5HK4cJpmjqVLN9sM2Ff16BV3l+cI8Bg2OuyrTNs/SxZOnfuCM78UXXYIbXtAMEJOIya7xDltdfpcFc4gnb5FxEPdwV8NzewBJYTr6KwR2StsevphsADN1ekViYh0Jg3wfw8FoUeps99o8Qfz4/G8t4ewe9q9pKSUnPITTwsdkhz5XQler39tw1/2CTUATw+WzVea5l8OLinAgwId6Y5zpn8EN8zER9aKQ493F0N0Urg3wmF1vDNSrrk3JHnuHinWbuk7iZHDavTA+yWB9rckSv64NZd2dIaG7UmsaQTlcBGyXotIWoM1MXLl4pYvfuOyX/odESDRy/NeS7ekj2aPsKFbjlaSY8r7SOlW4OpCw6tM09tmABFhlLn20VSavensyX+1NOiK+CFGk644pT580lwKerVhsKqzSJe09TsrHvRJaIRSfd6NeonwxURUFH2mxhwjqYY8M9qecL9HSsGgseK7ko6L4mgdsupIK0am6n/ZlHHJ8qyAn7klwJh7GyEh5SI2skONIpj9u5UGnIDgV4NlvLXma3/Lnt6iGQffO59E1rMcwL8COsUUJY5cIUkqv5bX50mU2NMqopRtmVQZqTsLaD4K9WRcpLn5CB6wIa4lroXBl1ONAgBYRKv3k5jYHCbdh1FaeoX324jjve21JFes+COEnVLJ9hOpYja4rwxoZVEkpPqKqpFMZbEhngQx48seRiCnszQly/Gx34LrkzH9J2YjO7XSjS/cz85jMkl6fjcKNERBhX8Rq/r1DH7TCaSPJAh5TsZ5uiXQ1EdBcgXB6TjGcZN4oz57+CAzmOFTOpor2hosTWxeuN4e/MpLSWJ0SI12QmNfigcsNm3aQCfvzeSRwbpd4l9aWaWY03OqcpoPXlLt+sE0TlO3RNyxQ/DXY36Oaj6sC2WNJIRdfGAmy1rD8pW4+1jdo9LLSNwnSbYuC7bWL0cNa73HLHnDbSTSC3fFQ6KI0QNXmjP47/awLTCuBfDw+fAOh6rbwRjlYGMlnTOLJ5wp3kC4/7nW5KVn1R8p8qGWKLhlVqLbWMLZB1jEY/jyZUSo9bL4mP2HDp0BE3BuEDIpXwKDNgd7q/07l1XrxdUn64VUnTE+Xu+vN9f8Jit+T7HIK4D66sk+nc8w0/kIC4hkRB3htrJz68tbmB58rqigsTNj/dWBmuIrzQx5eM9PJzt/CUE35SWNBVgnPKKkyX3V+lvs6y2prb2+Wq6Xjp0f4ZCJt+iucQ43HMYsqEbooCnFmBv3Euru1iEiFSlC5OHgH75pNn/SVydlbxS6+iM+uW3weD14chmGcX3ou5TFM62AeQwaHybW3ZpbuwvwojdEoo0se7lKyVXMoSn2b1uu5zIv5oz/6oz/6oz/6oz+agOrLWzqknPjwwn6ZPWSd3hCRQVLlZbUal2WfXn5N0aTR1osaLpeigPni2HLPs44vgeG39yBeeRd5nTUx4fMcbYVu3jUtSGRvmYR83zcpWVZdZ0WKd9fQS6Lbo/nUVaV154WJFvlq4XMYujyElrRveF3eTvmI8Ocw9JM4+tR0qpXy09fBUErUX6gmBV/Lrrbd8rWUxnhhH0QglWe/VBSTa0MeLoDSFONrFR/aioTcj5a9AwaR8aak8LULhI6WWUYmr+MpzR8N8Be3o4oN+eKFg6bnR2fO2JqoFiJ/DwzjezCMMRhsypPqdphvglF9D4Y3BoPWfdU8qrh9/epO1OJ7MHZjMOgR6qjWN8GwvgcDj8II+jrpTYfK/EkYcKmps+6L3whjibvNdr8SRp/+YHyH/mB8iTiMV9eF3gTj1Zf5OIyvtn39wXgp/RQMeyC++10w6qFU1++CEQ/9it8F4zTUAMdhvHoA/M/AWA1K/XMYSwt70fl8DLMxb97E8fF+OkeHEFuare3CcMft7QAMdRimTE9grDO5EWdoBoGjDnNG0JGshSHyVDRpcL4c4jisCO0oScgGYESDx38URo+9m/ZlmgbE7mWNDgyr/w5FBwkYsWPbW9+0sgJfQ9aMqW/oGIGxjPt/Speh0TVOdUcodWCsdP260l6P5A61KEZgiHRf5m627X2hfksU73zLgo278cXfv3Re1IFhwCwNhbvoIA83+TkYYr14Qki01/YmVTFu2uvKqfav9WFIne1x767qMIyBUUBDMESTfdV50KtQ0KeyImXcdSRRB4MD1g0ibJvxY887JMfPpr1XL51DMJpT1Oy0yGh1XsgeKxJN7zPVupcpMNijUNv5ptFUa5NejRiYIzcAQ6go6W67Hgbuw6B6qKOb+zBY/nigPKRVuKvvw+C7IYc5n1oYsXr0mocnLYxW8mka8TjUDqe3G+a3Yaxo9UNJaOsG7TVpyo6MFl2L34Vx0IB/CgPkc+BC6qCm2ludIrMeBj99p6cfoyvDWJ56i/QlGOSMPL4Jo0dHLYxG+4/f41dgBBp5UmkARtD/+5y+DuOuhSFdUBwbdSHDYNWL0RsnQ476D8C4aWEoU9Tw4NGSYPAaweioqyEYdjEexD6HIZa9+1wZUIvigV/EYUTGsvGmxnJK/zWl8Kwu3n4iQe9HndvAF+2vEsZTcpnHissvgLE0d5I/qvFpul73YThsUmjkCvpPw7Bx59aJzjXbdO/ZaAqoGhgjtaEfhbEsmhaAm3fmX2h/i/mhMtg7MPJA+uZDOrve/EtgiJn36IR9cBoYpNPA7+lcB+6GVw2MA2yB+GZQRf8cDOHjVkL3JKMwiIicZRx6D5cHqo00DSnI/wqj290mJtpIbXVMAMY+0GkvtXt0fJ+Omy+CsAHX4sdgcKGQY73oKQxp2n832m3sBqNlc8ZeCoOvliKpxy/AkNpQVJeJw2hix6adQu+T/AwMYZmVp3dlPQX1IgZh7dWgvbMb7bHSW4+fgSF0lMKjFsa536XI90P1mTiMdi/XzenTNZ0KBr4LQw0mhdVWYJzVY0Fp2X1Ry6B2NySr0w7z0KgrwcCXYWhff9f9AQZD1UDwSXw9KWXv7YfnSL2d3yZx+rkv8ZMvT4pBuiMgDq4sf+IUKPtGP1Cw21KtW2NhheRnrQvTPVeNAuhK4hA1w2UU/6ZZqJaXbdMfF1+9kzhbrAFILQCxhT+pf0dYFHnhV+3d8s6qtz/44pC7pn3uJq9eG0OwSRVBcUYdWkowlLlnvMNOlfxmtRQ3SvoEo4v0521lnsYRW8ETLLacbE6ybWOyR6fS0VVir2v0zQf2N0TWXT5fpLNBkmN4Ktq/ovi9x7SuyYHdeh0vk9HIbVp1Qiml+6q3Tpy8rTxZrDkE4ygZ9esGR8FVdwATNgYmm4xMDdfdXxdnQQ1N2YdcNCcjbtdT3zSrHHXdrKhmoN1VfV5Ri3G7eDFUb6rYSyLmFo2EdUwfPc7HQ+55Xn4hsE6NEXDbCRVlyvOsPOuq6KDt7tzlcaceZTU7XpYgv202Uq2hkF1y+kndJ3dtbWdMdpysyvNYqeQt60yTdF1taxwm9/LxOF3Corduq7rIzH3guC0zMlt1WKWZ6Qe24xJu/ge+kBs829E/ggAAAABJRU5ErkJggg==;" parent="1" vertex="1">
                    <mxGeometry x="422.40000000000003" y="21.129999999999995" width="65.04" height="83.75" as="geometry"/>
                </mxCell>
                <mxCell id="19" value="" style="shape=image;verticalLabelPosition=bottom;labelBackgroundColor=default;verticalAlign=top;aspect=fixed;imageAspect=0;image=data:image/jpeg,/9j/4AAQSkZJRgABAQAAAQABAAD/2wCEAAkGBxMSBhMQEhMVFhUXGBsVGRUVFhUZFhoYFhgWFhYVGxgaHSggGB4lHR0XITEjJSkrLi4vGiMzODMuNygtLjcBCgoKDg0OGxAQGy4mICYtLS0tLy0tLS0tLS0tLS4tLS0tLS0tLS0tLS0tLS0tLS0tLS0tLS0tLS0tLS0tLS0tLf/AABEIAJoBRwMBEQACEQEDEQH/xAAcAAEAAwADAQEAAAAAAAAAAAAABQYHAwQIAgH/xABKEAABAwICBQYJCQUHBQEAAAABAAIDBBEFEgYHITFBE1FhcYGRFBUiMlNzkrGyFjZCUlRicpPRIzOCoaIkNGN0s8HCJjVDg6Ml/8QAGgEBAAMBAQEAAAAAAAAAAAAAAAIDBAEFBv/EADARAQACAgAEAwgCAgMBAQAAAAABAgMRBBIhMRMyURQiM0FScZGxBWFCoUOB8NEj/9oADAMBAAIRAxEAPwDcUBAQEBAQEBAQEBAQEBAQEBAQEBAQEBAQEBAQEBAQEBAQEBAQEBAQEBAQfMsgbGXOIAG0kkADrJXYiZnUOTMRG5RTtKKMG3hMXY8H3K/2XN9M/hR7Xg+uPy/PlTRfaYvaCeyZvplz2vB9cfk+VNF9pi9oJ7Jm+mT2vB9cfk+VNF9pi9oJ7Jm+mT2vB9cfk+VNF9pi9oJ7Jm+mT2vB9cfk+VNF9pi9oJ7Jm+mT2vB9cfk+VNF9pi9oJ7Jm+mT2vB9cfk+VNF9pi9oJ7Jm+mT2vB9cfk+VNF9pi9oJ7Jm+mT2vB9cfk+VNF9pi9oJ7Jm+mT2vB9cfl+HSqitfwmL2gnsub6Zd9rwT/nDNtNNbTuWdDh9g0bDUOFyfVtOwD7zgb8w3qWPB87K8vE66VZzLpFWOmzmrqM1735aQd1nbOxX8lfRl8W/q0jVvrKkdXMo612YPIbHObBwcdjWP8ArA7g7fffe9xRlwxEbq1YeImZ5bNgWVsEBAQEBAQEBAQEBAQEBAQEBAQEBAQEBAQEGa43O6v0ikiLiKeA5coNszwSCT2h23gBs33XtYKRgxRbXvW/TweKyTnzTXfu1/3LnbglMG25FvbcnvJTxsnqh4WP0fviWm9CzuXPGyep4VPSDxLTehZ3J42T1PCp6QeJab0LO5PGyep4VPSDxLTehZ3J42T1PCp6QeJab0LO5PGyep4VPSDxLTehZ3J42T1PCp6QeJab0LO5PGyep4VPSDxLTehZ3J42T1PCp6QeJab0LO5PGyep4VPSGXabYvDJVmCmY1sbDYvbve4b7H6o/nv5lG2W9o1MrK4qV6xHVV1Wm7dJRF0DpXHLGywLudx2tjaOLjYnoAJK5M/JOtNxuezqk7dmxdReodDsTNTovTVDjdz425j99vkv/qBXnXjVph62O3NWJTKimICAgICAgICAgICAgICAgICAgICAgICAgy3BHWxOt9c74nr3snkp9v8A4+cr8S/3lMZ1RpZszpo2Z00bM6aNmdNGzOmjZnTRszpo2Z00bU/WFpEYaLwaM2kkHlEb2s3HqLto6r9CjZOsfNlyiklNHMDfWYkImENaAXySu8yONu10jurm4nvUb2isbWY8c3nT60hxGOWobHTtLaaK7YmnziDbNK/ne8i55hYcEpWY6z3dyWiZ1HaESpKno7VRGW6v6UHmkPY6aRw/kQsGbzy9XB8OFtVa0QEBAQEBAQEBAQEBAQEBAQEBAQEBAQEBBlGEutilZ653xPXv38lPtD5uPiX+8/tK51VpMzpoM6aDOmgzpoM6aDOmgzpocFdXNho3yvPksBcezgOk7lyejsdejFsSrnT175n+c836huDR0AWHYqlzhhic+ZrGguc4hrWjeXONgB0k7Fx2I3OoX3StjcL0ZZhcZHhM4EtW9v1foQg/VvfsBP01RT37c09vk1ZNYqckd57s/V7IdSOw9VaO0Hg+A09P6OJjD1taAT33Xm2nczL16xqIhIriQgICAgICAgICAgICAgICAgICAgICAgICDJMPdbFKv1zvjevoLeSn2j9Pmv8Akv8Aef2kM6r0lszpo2Z00bM6aNmdNGzOmjZnTRszpo2pGsXFdjKVp/xH/wDBvvPcqsk/Jbjj5qMq1jSNVmEMhpJsZqR+yga4RA/SeBZzhzkeYPvOPELPmtueSGzh6ajnlQ8YxJ9TiktTKbvkcXHo5mjoAsB0BX1jljUM17c1tumuoLRq1wfwrTGBhF2Rnln/AIYyCO9+Qdqry21Vfw9ea70msD0xAQEBAQEBAQEBAQEBAQEBAQEBAQEBAQEBBj9K62K1frn/ABvX0U+Sn2j9PmJ+Jf7z+3czqGkjOmgzpoM6aDOmgzpoM6aHzJMGxlxNgAST0DaUGR4lWGavfKd7nE9Q3NHYLBZJnc7a4jUacmCYY+qxaKmj8+RwaDzDe5x6A0EnqUbW5Y2nSvNbTRNbmJMp6Cnwen2Mia18gHR+7aec73npLSqMNdzN5auJtFYikMuWhiEG66lcA5DAHVbxZ9QQW9ETb5faOZ3SMqx577tr0elw1OWu/VoyoaBAQEBAQEBAQEBAQEBAQEBAQEBAQEBAQEBBjUbrYrVeuf8AG9fR/wDHT7R+ny9viX+8/t2M6jp1+500PzOmgzpoM6aH7nTQZ00IPTCtyYK5o3yEM7Dtd/IEdqryzqqzFG7M8WVpavqfw1lPhVTi8+xrGuaw/dZtlcOckgNHURxWbPbcxSG7hq8tZvLNMXxF9TiktRJ58ji89F9zR0AWA6AtFY1GmS9ua23TXUE1odgDq7SGKmF8pOaRw+jG22c9e4DpcFDJblrtbhpz209PQQtZC1jAGtaA1rRuAAsAOiy896r7QEBAQEBAQEBAQEBAQEBAQEBAQEBAQEBAQEGLOdbFqr1z/jevpI+HX7R+ny1/iX+8/tyZ005szpo2Z00bM6aNmdNGzOmjZnTRtTtOKi9XHH9Vpd2uNv8AisueesQ1YI6TKApKZ0tWyJgu97msaOdziGtHeVRM6jbRWNzpq2teqbRaKUuEQne0F/SyMixPS+Tyv4SsuGOa02lt4ieSkUhka1MAjr0Dqm0W8DwLlpG2nnAc4He1m9jOg7bnpNuCxZr806elgx8lf7XpUrxAQEBAQEBAQEBAQEBAQEBAQEBAQEBAQEBAQYjUOti9T65/xuX01fh1+0fp8rk+Jb7z+zOmkdmdNGzOmjZnTRszpo2Z00bM6aNqVjNaKiMv4xvIHTG4+Sewj+pYslufr6fpux15Onr+1m1L4Ry2lvLOF207C/8Ajf5DB3Zz/Csee2q6buFru20HrBxnwvS6omBuwO5JnNkj8kEdBOZ38Sliry1hXntzXl9YRoZPLCJZnR0sB/8ANUuEYI+40+U/o3A86WyRHSOrtcEz1npDSdBdCcKe5z43urHREB0jg4Qh++zQAGv4GxLrXHOFRkyX+fRqxYcfy6r5j2O09FQ8tUyBjdw4ucfqtaNrj1KmtZtOoX2tFY3KBh0tq5WZ6fCqhzDudNJDC4jnyOJKlyRHeyHiWnrFXDJrEZBOGV9LU0hO57miSI9AfGTmPUF3wpnyzsnLFfNGk7oxpJDXwSyQZiyOQxZnC2azWOzAbwPKttsdihak17pUvFo3CZUUxBCaQ6WUdE3+0TNa61xGLukI58jdoHSdinWlrdkLZK17yhqbTaonZnpcLqnsO50rooQekZibjpClOOI7zCMZJntDkk0uq4mZp8JqQ0bzC+Gd3stIK5yRPazvPMd4SGj+mdHWvyQygScYpAWSbN4yu863G11y2O1e7tclbdlgUE3xM4iFxaMzgCQ29rm2wX4X50GfaQaxamie0VOGuYHea4VDHNNt4zNYRfoO1X1xRbtLPfNNO8ODBdaM1XWclTYc+R9rkCdoAG65cWAAdaWwxXrMuU4ibzqIaPA5xgaXNyuIBLb3sSNrbjfY7LqhpciAgICAgICAgICAgICDDK51sXqPWv8Ajcvp6fDr9o/T5TL8S33n9uPOpaQ2Z00bM6aNmdNGzOmjZnTRtwV1YI6R0hF7cOe5AsoXty12lSOa2lMrowyrcG+adrelrrOH+3cvPvHLbUPQpO43LUNDH+AaqKqu3STFwYePoY+5+d3UsWT3skQ9HF7mKbMspKp0ZuywdwdYFw/CT5p6Rt6VpmNsUWmOzuYRhs9fjbIWFz5JDte8l1m/Se4nbYDb/LeVy0xSNpVi2S2npfR/B46PCI6aIeSwWvxc7e556SblYLWm07l6laxWNQzLBqsYlrekM3lR0wk5Fh2tBie1gdbnLiX9jeYK+0cmLp82atufLO/k15Zmt0sYwuKqw59PM0OY8WIO8czgeBG8HguxMxO4ctWLRqVO1QYeafDa2mcbmKsey/PljiAd2ix7VbmncxP9KsFeWJj+1+VK5m+tDWCaS9JSkcuRd79/JAjZYbi8jbt3DbxCvxYubrPZnzZuTpHd86tdBA2FuIVoMlRJ+0aJPKyA7Q52bfId9zu3b7plyf417GHFqOa3dpSoaBBR9YWgjKymNRAAyrZ5TXN8nlC3aGuI48zt4NuCtx5OXpPZTlxRaNx3QOrPWI+SpbQVzjyhOWOV2xxdu5KT73AHjuO3fZlxa96qvDn37tu7Vlmame68WA6HMPNOwj2ZB7iVfw/mZ+J8iE1AsFq13H9iOz9qVLifkr4TtLXVmbBAQQmO6WUdHVxxVMwje8XaC152XtmcWghovsubbjzFTrS1o3CFslazqZTTXAtBBuDtBG5QTfqAgICAgICAgIMIxN1sYqPWyfG5fUYvh1+0fp8nm+Jb7z+3XzqelezOmjZnTRszpo2Z00bM6aNujjbC/DXAcPK9naVVnruk6W4LavCpvkuwDmFh1XvbvJXmzO3oxHVp+tV/g2i2HYYN7WCR9udjcgPa5zz2LLh62mzbxE8tIqzCOMukDWgucTYNaCSTzADaStLHETPSHoXVloaKDC+UkA8JlALzvyN3iIHo3m289ACw5cnNP9PTw4uSP7XRVLnm12IS4ZrBllA8qOeS7TszxvcTbozMIIPA2K36i9NPNm048sy33RzSGnrqATU77j6TTsew/Vc3gf5HhdYrUms6lvpeLxuEqopvlkYBNgBc3NhvO655ygj9JMWbSYFNVO3RsLgDxduY3tcQO1SrXmnSN7csbefNCqF1fpzCJjnzyGaUn6QbeRwPQ4gN7VtyTy06POxRz5Or0qsD0xAQEHnnW5hYptNXuZ5Ima2cW2WcSQ+x58zS7+JbcNt0edxFeW+4bJoBjprdFYZ3fvADHJ+NmwntFnfxLLkry2024r81YlA67/mYPXs9z1PB51fE+RC6gf3Nb1xe6VT4j5K+E7S1pZmwQEFV000Ep8SkY+Rz45GDLnZluWXvlIcCDYkkc1yrKZZp2VZMVb91joaVsVFHCy+VjWsbc3NmgNFzx2BQmdztZEajTnXHVdp9JQ/TmTDmBpbHByr33OYSZ2DJzWyuB7VPk9zmV8/v8v8ASxKCwQEBAQEBBgmMH/8AYn9bJ8bl9Vh+HX7R+nyOb4tvvP7dO6mrLoF0C6BdAugHcmjaF0Xw7lNLqaDeDO0H8LXZnf0grxM3uRMPbwe/asrfphhc+K6zZYIPNiDInSG+RjGi7ienO54A4ntKopaKY9y1ZKTkyaj5NQ0T0NpcPgHJMzSWs6Z4BkPOAfot6B23O1Z75Jt3aceKtOyxKCwQZ3rP0ANb/aqa3hDRZzDYCVo3bdweNwJ2EbDuCvxZeXpPZnz4efrHdjFJV1NFipcx0kEzDlItZw52uad46CLLVMRaGGJtjn0lsOhOtSOoe2CsDYpTsEg2RPPAG5/Zk9Ow842BZcmCY6w24uIi3Se7SlQ0qBrtnLdC8o+nMxp6hmf72hXYI99n4mdUUbUYwHTGQ81O8j8yEf7lXcR5WfhPNLeFjegICAgxzX7H/bKJ/EtlHcYiPeVq4b5sXF/JIahJycJqo+DZWv8AbZY/AFHiO8J8JPuzCS13/Mxvr2fC9RwedLifIhtQX93rfxRe6RT4jvCvhO0taWZsEHFVSFtM9zWl7g0kMBALiBcNBOwE7tqQ5PZm2mGnGK0tK2Q0EcDHHKHySCY3sSARG4Bp67jYtFMdLTrbPky3rG9LDqxx2at0bM9Q4Ofyrm3DQ0WAbYWHWVXlrFbahZhvN67lz6VyYmbsoWU7Wlv76V5zgm98rMtgRssST1LlOT/JK/Pr3WO6tKiudpJLJR8jJO6JxeakvILXSRlzrtIJdmy7zxK15eXl6sPDzbnnXdsWjkuKmvIrmUbYspsYOVz57ttfM4i1s38lktya93bdXm+azKCaj4zpjPLjL6DC4mzTM/ezSE8hFwsbEZjvG/eNxsbWxjiI5rKbZJmeWin6SaUY7h9S3wl0Ra7zXNjY6Ikb23ADgeg2KtpTHfspyZMtO6+autL/ABlhTnPaGTRkNka2+U3F2vbckgGx2E7wVTlx8kr8WXxI2tirWiDBMZ/7xP62T43L6rD8Ov2j9Pkc/wAW33n9umrFYgICAgICDu6uaO+spjjuYx83/wA+T97l4vHxqZ/vT2v47rET6Ng0WwUU1C4kDlZnunmdxMkhLiL8zb5R1X4leba25etSuoTSikICAggdKdEaWvp7Ts8sCzZWWEje3iOg3CnS817IXx1vHVg2mehlRh1SBJ5cTjZkzR5J+64fQdbgd/AmxWzHki7zsuGcbQ9S+lj5mOw+ZxcY254nHacgIa6MnjluLdBI3BUZ8evehq4bJNo5ZT2uKiMug0rgLmN7JbdAdlcewOJ7FDDOrrOIjdJZxqTqAzTXKfpwvYOsFj/c0rRxHlZeFn32+rE9AQEBBi+vupBxSki4tje8joe5oHwOWrh46TLFxc9oT2oqhLNG5piP3kth0tjaG39ovHYocRPvaWcLGqbdnXf8zG+vZ8L1zB53eJ8iH1Bf3as/FF7pFPiO8IcJ2lrKzNYgIKRrl+Ycv44v9RqtwedTxHw5dbUj8yz65/uYu5/O5w3w1+k/dnqKpXsM1D/OmX/LH/UiWziPKwcN55bqsberOsbHTRaJyzMNpHWijPM5+zMOlrczv4VZirzW0ry35aTKO1PYW2HQuOS3lzl0rjxPlFrNv4QD1krua27I4K6ohtaFeMQMWF0Q5eYSCSQssWRBoe3yn7mm7tu3Za28gKeKOX3rIZ/f9yq2aCaJsw7COSDs8jzmkfuBdawAHBo4dp4qrJfnna3FjikaWRQWCDBMZ/7zP62T43L6rD8Ov2j9Pkc/xbfef26asViAgICAgILRqoivprM/6tNb2pG/ovG/k596P/er2/4qPdmf/fJr68p64gICCE0Nxo1mj0dS4NDnF7XBt7AskcziSdwB7VO9eWdIY7c1dptQTdLGsLjqsKkppRdkjS09B4OHMQbEdIXazMTuHLVi0alhOqCB3y/jA+g2XNbmDS34i1bM8+4wcNH/AOjfqumbLSvieLse0scDxa4WI7ljidN8xuNPOVZRTYNpswuBIieJGO9JCSQbdJbmaeY3W6JjJR50xOLJt6Loqtk1GyaNwcx7Q5rhuIcLgrDMa6PRid9XOuOiD8c4BpJNgNpJ3IPOmktRJi+nrhTjNncIouYRs2coeZvnP7VuprHTq87JvLk1DfcCwtlLhEVNH5sbQ2/Ene5x6Sbk9axWtzTtvrWKxqFN13/Mxvr2fDIrcHnU8T5ERqC/ulZ+KP3PU+I7whwnaWsLM1iAgo+uX5iSfjj+MK3B51PEfDlwakvmX/7n+5q7n87nDfDXyX90eoqlew3UN85pf8uf9SJbOI8rDw3nluqxtzONesZOicRG4VDSe2OUA9/vV/D+Zm4ryPjV9o9DWaGwPmmqJGWcwwcs5kLcjnNy5I8uYWAPlE70yWmtp07hrFqRtf8ADMMhp6bk4ImRM+qxoaL85tvPSVTMzPdfERHZ2HytD2tLgC42aCQCSASQBx2AnsXHX2gIMn0/0cfDiT6ljSYpDnJG3I87XZuYE7b9Nl73A8TW9IpPeP8Ab5/+Q4W1LzkrHSf9Sp916DzNl0NwXQ3BdDcF0NwXQ3BdDcLlqjH/AFFVH/Bj+OReL/J+ePs93+Kn3J+7Vl5b1hAQEGG6uNKJqEy8rBM6ifI4mZkb3NieDZzrgWIta437NnEHXlpFu09WLDea73HRsOH49SzwB8NRE9vO17e4i9wegrLNZjvDZFonsr+l2ncFPSuhpnierfdkcUX7Qh53F2W9rb7bz3kWUxzPWeyvJliI1HWXU1V6FuoaJ084HhEoAI38mzfkvxcTYuts2AcLruXJzTqOyOHFyRue6+Kleg9LdF4MQw3kZhZw2skHnMdzjnB4jj1gFTpeazuEMmOLxqWf4HW1uAyGnq4nzURJLZogXCO52n7oO8sdbbcgnbe60VydY7s9ObF0ns0PC9KqKojBhqoXX+jnDX9rHWcO0KiaWjvDTF6z2ly4hpFSQR5pqmFg6ZG3PU29z2JFZntBN6x3ln+kOkNXi8Zo8MheKd3kyVUgLGObxaCRsbzja47rAXvdWtadbd1F7Wye7Tt6rXoNoVDh1IbeXM8eXKRY2+o0fRbfhx48LV5Mk3lZixRSOi0qtayHXPpTTTYTHSQTMkfyokfkIc1rWte2xcNlyXDZ0FacFJidyycTeJrqEFqj0vgoauaKpdlZLlIksSGuZmFnW22IO/hZTzY5t1hXw2SK7iWs/LrDct/DYPbF+5ZvDt6NniV9UPjutSghpXGGTl5LeSxgdlJ4XeRYDquehTrhtPdC+etYSOrGWR+hcMsri58jpZHEknz5pCLX3C1rDgo5dRbUJYpmaxMqxrg0npH6NPpY543y8q0FjHBxbkcS7NbzbEW28VZhpPNtXxFo5NOpqf0to4NHn09RURxPbK545RwaC1wbtDjs3g7F3NS023DnDWjl1LWLh0Ww3BGw8No3rM0vPGrjHGYZpS/wkOa3I+B5AJLHNc03IG07WkbOdbsteevR52G8UvPM086WTYk4wYWxzWbpK2VhDIxx5Np2vf0G1uOzas/JFOtvw18836U/Ke0g0dFVoo+hc9ziWNaJX7XZ2WLJHEAXOYAm2+5UK31badqc1eVjuimlNTgmJSUlTC4xk3dHezmu3cpGTscCAOg2G0LVekZI3DHjyWwzy27LpVa56MQXjgqHO4BwjY3tcHm3YCqY4ey72qvyh29BoKquxTxtXNyBoLKWGxAY1+x8oB23I8nMdpF+GVcyarHLX/tLHzWnnt/00BUrxAO5B1HYZATcwxew39FPxb+s/lDw6ekfh+eKoPQxfls/Rd8W/wBU/k8KnpH4PFUHoYvy2foni3+qfyeFT0j8HiqD0MX5bP0Txb/VP5PCp6R+DxVB6GL8tn6J4t/qn8nhU9I/B4qg9DF+Wz9E8W/1T+Twqekfg8VQehi/LZ+ieLf6p/J4VPSPwiY6ZkWm7MjWsElK/Y1oAJilj5vWJNptXrLkVitukfJYlWsEBAQcdPAyOEMY1rGjc1oAAubmwGzfcoRGkXiGitDPJmlpIHu+sY2ZvatdSi9o7SjNYn5OfC8Cpqa/g9PFETsJYxoJ6yBcpNpnvJFYjtCRUUhAQEFF0+1eQ1lG6SBjI6lu0FoDWyfcfbZc8Hbx1K7Hlms9eynLhi0dO7CqaSSkxYOyBssT9rJGgjM02c1zTv4j3c62Tq0PPiZpZ6T0O0kir8FbNFZpHkvjvtjcN7eriDxHcsF6TWdS9PHeL13CcUExB0fE9P8AZ4fy2fou7lzlj0PE1P8AZ4fy2fonNJyx6Hian+zw/ls/ROaTlj0PE1P9nh/LZ+ic0nLHo7cUTWxhrQGtG4AAAdQG5cdfJpmX8xvshA8FZ9RvshByjcgiq3Rujmq+VlpYHv4vfGwuNt1yRt7VKL2jpEozSs94SUUbWxhrQGgbAAAAOoDcopPtB1cQw2GeLLPFHK3mkY1w/qGxdiZjs5MRPd06LRmihkzRUsDHfWbEwO77XXZvae8uRSsdoSyikICAgICAgICAgIIbGYy3FqOcC+WR0LyL3DJmHb+YyFSjtMIz3iUyopCAgICAgICAgICAgousXV+2vZy8OVlS0WudjZANzXW3EcHdh2Wtdiy8vSeyjNhi/WO7IcMrq3B8ezFjo37nxyAhkjea+5w5nNvY9oWmYrkhjrN8Vm06P6x6CppwXTNgfxjncGWPQ8+S4dRv0BZbYrQ20z0tHdO0WP0s1ZyMNTDJIGlxZHIx5DQQCSGk22kd6hNZiNzC2LRPZJKLogICAgICAgICAgICAgICAgICAgICAgICAgICAgICAgICAgICAg4qmlZJFkkY17T9F7Q4dxSJ05Mb7oZ2heHF1/AqfsiYB3AWU/Et6o+HX0SmH4bDBFlghjibzRsawdzQFGZme6UREdnaXHRAQEBAQEBAQEBAQEBAQEBAQEBAQEBAQEBAQEBAQEBAQEBAQEBAQEBAQEBAQEBAQEBAQEBAQEBB/9k=;" parent="1" vertex="1">
                    <mxGeometry x="291.8" y="251" width="144.4" height="68" as="geometry"/>
                </mxCell>
                <mxCell id="37" value="Run React App" style="edgeStyle=none;html=1;" parent="1" source="20" target="10" edge="1">
                    <mxGeometry relative="1" as="geometry"/>
                </mxCell>
                <mxCell id="20" value="" style="shape=image;verticalLabelPosition=bottom;labelBackgroundColor=default;verticalAlign=top;aspect=fixed;imageAspect=0;image=data:image/png,iVBORw0KGgoAAAANSUhEUgAAARMAAAC3CAMAAAAGjUrGAAAAkFBMVEX///8dY+3y8vQAWuwAV+wOXu0AW+wAVeylvfcYYe0AVOzj6fyIqPTc5/wLXe1/nfP5+//x9f5ymPOYr/VulPKvwPdjifHp7v00cO7M2vslae75+frE0Pn09/4bZe3x8fMAT+tFeu88de/V4PtQgfBjjvK2yfjH1fqBovObtfa5yvhVhPAube6QrfUASOuasvVZX3SXAAAJRElEQVR4nO2b63qiMBBAQQgQLxQsiFe2Copa3b7/220mgATHtsF2v3a7c/6kGghwSCZDsIYhWfSIXm9hNCx+qZ/+XxaNlQUZqVn0qpKUKEgppKSF1PHrq8/im9GjboIQQnpffQ7fjh45QZATDDnBkBMMOcGQEww5wZATDDnBkBMMOcGQEww5wZATDDnBkBMMOcGQEww5wZATDDnBkBMMOcGQEww5wZATDDnBkBMMOcGQEww5wZATDDnBkBMMOcGQEww5wZATDDnBkBMMOcGQEww5wZATDDnBkBMMOcGQEww5wZATDDnBkBMMOcGQEww5wZATDDnBkBMMOcGQE8zHnARLSfBpp/Mt+JiT8Lct+J182ul8Cz7opG8KXHKiQE4w5AQT9rmgT04UwvlGML/XyX3z1erOo2nzhflJsZnu7tgtciaffiptujkZxRIj8WQZBLL07rtzjHEr7LxX7HL3cNfxtOnmJH6yLMueGzMoLR6Gv6G8Mz9xTbM/6LzX0DfZ+K7jadPRiSWmGT41ZjbMN/PwQ/OOaMP9T5x4mWZj/4+TxLFjvcZ+ihOXMeafjFlflCwNwycon1Qne5+7etPJD3GyfJ4IIiPLodyuVrLMFScrzk1ujXQa+yFO3mcmZhOT5Tqb/uNOlo9AbGRnKA/GQJYvQTCEchgGL1CeRffwIOKY/Tfi7Cqs0tdrJ8FqdTuxbVUgJ8Hq1W3l4eqPYaibRuk52bu+79sTI+6L0oL8BEpTxBNR+k9JkFpQLg3jxQEn/uMrDY2GecpP63EcXDlJvMkmTTcT73peD+PtZi4qDtWmQ9Z2cpjzZdPIVjQyzQ+Nai+di+ogjjacp+sHrTlRz4k4ETEitq/OO8GJi9K+OGGTmXd+jIur+55sLV+EG86ZlXqqk9XesphoQlT4+9btfGFQAXtYUYidjNaWuNbyMMG+2pZbzrhqJHzibGocUlEBgY653hc42cmxYzLbER3Jdvdq8r5zmHnBzs2Lkyx1eP09d+ZNhE42VlPBzOLayaML1VwKGJyUbf10VjoT4S3dWJej8s0XOBn0TQX+pOQqcR96gm+7rgXN8YuTTBphQqEtK9isVjKXny3bLnuRk7ScZPJi+ZN8/Bnxsp/V21rL2ok8EjRiM87Wn+Zkb0P82JbxxDmV8cRPlXgCZR9OI2eqE+W2FHBPGXsostHyubpz0snAl9ewXWajInLqaxcEJwYV+S7LlhETf9szJcYGQ3BsOidpMJQi/EmcZceIw35Po9pJ3UgxnG50Aoqek/gBOBjFGMq9MSrLYCXLcRjsZQkHzBQn3G1OIZiLk7aeqwBy5Pzi5FnswaZV38im/mUufxCxiZ2qikHu2vOgcZJNZSdx92UwiaCR+ooHudiTry9O+HxmdOCT85PVLr8MapM5RVMDk7TTBMckrcdOIUYbW1+icbAWV+fCjomo4GkTkGIP/q6c7GXwsGpjmd1qxNhCr9rVY6fjopdmfuK9z8vwIVrbZZyTU4s9UbMPEXFaAU4GEXACp28qoThMZegyjLMvRhHKiMHJQ3Zy5IjY198+MLGtOmFNxeHyyslb2dIt9JxsXes9HDHRsKqP8Gmej71WjjqyyhjcAL1dOFlBTDirFTCdz4WkDb+VsYoYy+fyQPzUXKsYiv6LutlSHM9dSSdScBf0nIzVwPku3MEpu5ij+amVrhSWdJKJwm9tPxARxR0ZiZgvLBwHRD8xy76YNs3JYbaNVGDwFNKJXaBG3kbPyYPfxQl7xi2Im8/bXydlzlbY17IMcc1wOWLocBwIhn45OMVhosuXMjfgTAWizU46sboueek5OXdy4t6I8qKFqz4clE6WNiQ8LUTosY5ytKX4AahMlRj0FXtYf1nmS9dYMTjhZtdFXz0nR+vWMV+B38qLDjf7iZ280U+cV/sJy0cyRNt1pp7hfsKYL2IrOEn/jpOR06Wb3Bq/wiqfX8cTON3MQfFEfGMP5Gx9K56wssMd+8qhyngybrMvjL/pxDjxd1XU3A7zYLU974g5GGbLIO0479R5rGfDbFxNPSK+sDPa9u86ibQnHm7fDmnzq/xkJq7cgSUFcKMO+aTOT8TV31ixa9ZPhiAlLY8G+cmtl0V/00lxM4jdwnpl6QRuq9PMFDAyuA9nO4M8dnOVx8KYkQNCsbU7KHksEFmQ+8s9yzy2SdqKY1m2nYR6L2N1c3umOXhef/AUmaXp5NV9LyC1t8p5Y9t63gElfhmNhxZIqa/u2bVPRnudDZ43q4l/DKF3Wo2kJO/3y69VJ7P97qz1SkHXyUFv5rmRjNfIuYH50a4oDmt4BKj1hal8Lp7ERRE/y2dks3ou3sgsY30oZvFWPhdnbSerKas7X5DCs7D/HM+y5Vg8F3M7vHISbpfn41DnYVDXSaAXZd3j600Udr3CUa6XbOquPjBlzlEvfbC09hqW6ydOvSbCwqs1JanTlsG1XGtpGinHlOJkt/PO42RvvI/2c/FOJ6K8/XZ76TcjkNt5M7hbS2TWvJmZk1NzVO6bcJPba9SZTBKk3ERdTvPTchgpOVtx8I5RdmtyutuJsX0/l7Vf3m4ijBynXBeF9ViVIZMrpqKCD1sVB7Nej63WWD2X20oYF52P1dnuELaVrTtR9dUK1mOrv8dxsJzozEH6ToLpO/Mxd99RIhgc8lOaTqPd9QwQehNRcdp61ycd7CKoeL6sxW/9XN05NqeXtGcVb6dpuomUxf+Yp5cU0tu/aL3O6LCmlKRvSuG23ivRQPChitV17dW2b1Vr0WWdLdy8keJbp44rN9+XTmuPQdR/ZfZh/eHP+TF1x/XYozJDNKPGt7bdX/x+XzqvUe/W5euZ2gf33fle63cE/wx3rNsncZQ68Ls2WIVl+eP1G9B/njvfZaxGs2K5LGY/7NfCJfT/OxhygiEnGHKCIScYcoIhJxhygiEnGHKCIScYcoIhJxhygiEnGHKCIScYcoIhJxhygiEnGHKCIScYcoIhJxhygiEnGHKCIScYcoIhJxhygiEnGHKCIScYcoIhJxhygiEnGHKCIScYcoIhJxhygiEnGHKCIScYcoIhJxhygiEnGHKCIScYcoIhJxhygiEnGHKCIScYcoIhJ5iesVh89Tl8M0DIr68+iW8GDJwFjR6VctzQ6FGpeghJudAMmsUvsgIseovWJ6JXG/kDPyCbJ/SkxvoAAAAASUVORK5CYII=;" parent="1" vertex="1">
                    <mxGeometry x="49.89" y="242" width="120.22" height="80" as="geometry"/>
                </mxCell>
                <mxCell id="32" value="CI/CD Build &amp;amp; Test" style="edgeStyle=none;html=1;exitX=0;exitY=0;exitDx=0;exitDy=0;entryX=1;entryY=1;entryDx=0;entryDy=0;" parent="1" source="21" target="13" edge="1">
                    <mxGeometry relative="1" as="geometry"/>
                </mxCell>
                <mxCell id="21" value="Github Actions" style="rounded=0;whiteSpace=wrap;html=1;labelPosition=center;verticalLabelPosition=bottom;align=center;verticalAlign=top;fillColor=none;" parent="1" vertex="1">
                    <mxGeometry x="254" y="389" width="220" height="100" as="geometry"/>
                </mxCell>
                <mxCell id="22" value="" style="shape=image;verticalLabelPosition=bottom;labelBackgroundColor=default;verticalAlign=top;aspect=fixed;imageAspect=0;image=data:image/png,iVBORw0KGgoAAAANSUhEUgAAAOEAAADhCAMAAAAJbSJIAAAAh1BMVEX///8AAAD8/Pzf39/i4uLo6Ojx8fHNzc2+vr7s7Ozc3NyXl5ewsLA1NTWDg4P09PTExMQjIyMdHR2jo6NbW1vW1tanp6ePj4+urq59fX23t7dWVlYtLS0WFhaUlJTHx8dzc3NKSkqLi4s9PT1GRkZsbGwPDw92dnYnJycxMTFlZWVSUlJJSUkfPDasAAAK8UlEQVR4nO1d6XrqOgw8hH0LUJYWyk5LKT3v/3y3gQbiYMcjx7bc+535nVBPHVuyNJL//PmHf4ARNRrtdv0b7XYj4h6MRUTV5svzx1d/tKpkcXzqT+LnXrPOPb4yGEx7+8lTRYfTJH7p/L45rS/ivpZbFv249Xums7H40M+cDKv33i9g2VmfjNilOK073BSK0IzNJi83lfMNNxE5prEFdiniKTedPNprG7OXxXI24CaVwebVMr0rtoFMZDQbOeGX4NDiZvdt1p+d0btg9cLLr7F3y++CMZ/DEzmevxtmTATHnvglWDDwG7rbX2ToNz3zq+688ktwbvsk6GODecTYG7/mkYXg96da88Iv+mDil6DrgWCTkV/FxzTOeQlWXK/G+pKb3zdeHfo4C25yP3B25uD/QlO42XAGB25eGbj4UjvcpEQ8WY/KhbIE77DsqK65+Uhg9byx5WYjhUXLOOHmokBsi+AXNxMltlb4RSFZiTwm/3eCNihGn9wcNHgty/CNm4EW7+UIugnX28VHGYJn7tFD2JsTDOcwUQxj0+8z5FsOhg7ckHvcBBilxqvcoyahQScYcY+ZhgOdYfiGUMSWSpAnbl8GPRrBFvd4DUDabdrcozXBisJQd57oNmu16WLtyaf7fB8vprXaZqd5juCh6rLXo9uTnS5NoEfHtnUzBFoDDRv+qe6X1tmn62N32eBXUW2ifR61ilp5UzX3QtONh/6cz/pqA2JvGEGtPk2ypOs2RW0XHF8ew9p6PxJSbeiD29IQV8Mqx5V0SQF+FpLs14ctFFKsxrsFaleopkLvaH3pCXb1f1+5nqt2zEesTLsAEiWtEq6h/41RwetyX2j0Ot93e8PNdNqp1audaXPYmq3j7ZtU8fC3II+NuFq6rBSwKxYa1khYjv3teNEpWBpRfdpbn4U6hUKbhvhampiG1hRWtOnJ6TUTftrOpmiSr7HpTq7zude8AgyvUpx3QzyUoW7A3dV8SD+R1l/OJ236GhlfYZC4h/yPOJW7kGtRNEBI7ORVX5YDdGwt8Gyw4Jo/Po/AMrXqdQS9zsoQm4N+uddZGUIbhXoSsbdZGYKCiU/527NfwBCcQ8UkolUvnkkJQGdBGj6Fw2uc1ZDAueAKmdoGDgH7EerKAYdxJY5NHX3XthiJBFz38uiX4Ed0rvqOBHj55uMRA37Vnk6HjgE+yocNkaDMU3oM7kERSOYP+xTdE1/pI2osEuQiNqREBV+ZLikuKx5RSSn7ORM/ymZRyesXaNkHLptPk/EKfk2N9KpJ0twKiFnNbMAGdoYu4OsJQBtn9jMlFYpoI1EOQRIrZ8wa7rFVSmmsLIA0F3fPjWJmDGQdNkHaMe7iBYqOm7v7CMWunW9vEV7yV8epAkWznL5DKClccnK7guKbprFhQlk959kwBaGGNU2x4PNuQxpfGkACMMWP9004dIXR/4eQT7/6l0hG7YrSung7IEzidUrw/TeEVZgAFwxcO6PAhy5FJNk/8K9ue3l+pX/wCn5bmAL23S6Tgm80XIemR+BnjORp2N7vuHndgXunic2H3e5wPlJC3DSRdsDWJa/X4wQ86Ofvh3fow9yssoDjGYkXhqpDg/DYUsDRz0/CVuqjcQoO2MRF+H+DMzzzCDhG38CNBWfa8BFwIrGDr1luTiJgZ3qIm0NuTiLgwroFPN2MOTUZ4MXVhetEAzkbpoCjNTF81grKHBKC2HN42w2MIWzG3+G8WmAM4QLQr9/ptBEYHjDRbHgM4a/0E47oB7aXws7mCGb4l5uTCPiUv4IZBmbxYXt4hBmSalDdA88m4Zk1bk4iNuiwj/BeGhhDVCz8zRA+LHMnf0XADeRWsMVnLZV5BBxsO+FqqABa3GcAVzoe/uzQR8OKRMGf3heeeeLT60mAd145452SmIU0InCN05yQMuZmlQWu4dsTElUhmQu82+iYoNkMaTPFVVwLQr8rXsmeCHjQlQ1BYhTQVkPo0lWjSDfCuZ6IIKYcUHp6hbMQ8WV4/EMRsZdqwWgThFlJlhahhoGbWQqCoj1pAEFoZB2KJoowKYk3TfyHBABKO8Akr0vpjxjGZZoUWfrFESM8z1l6eAeltfHlBUKHxKLWNN5AuQfmKqGlNHgKwSTuCOO9epqUeqkAlOy49PI2I6QiDY4L0ETsKMP9qZqhXFDFHvom9f59+nmJ1IXsmZUf3vnhgu3PSy+Ul5iVQ7SrRNLCJ1LpGm8Siti++Va8RmteyViPTyvOq5xu7xFbHvIZRWKPzXvchXpbHFfUjVYkmz0LUXt3H3niGXBGLUXmXWqH1RHHIYPcBT972CPfV7X0P4v0Nv/Z/YLeYv7ouy8d+RPNnWYNGgH7zZga9IjfCj9gctODx+PwwKTLfy6qZPALlbOv/cbspo3cj5j1OfZi+wdmt77ljwiG1xu+ujf+tHPBHQ8jM72aa+62Zm9jerfrY1Nog934B7E7wzE0vxJNsoDkD+6H9Xat1S0Wd5ydBMOjGd677BGSH5T1Hbh7Z1GvMEo5Gtv+WJvl+p/LtDEyTaogm9WE/79m9r7WYem7v6VepWxTFlsM6EzKMjboAZ3DoKlZEhDkp3RZMOMojhjI4nzGPePOC51FbOm2RcU/WuqcisMFY6tP5+fFtA3P56Az7MUTWCWphyqXK7f6ovvZJgRX4dLoaGeH2A1KP0R+wjgIz+Pd+Si133bv5Nkq/47qGxQui0LzBmfVX5GCEnfXomBTV9kg4eocLEF5pB08qMGwIhSFO5WfoKCHgrQe1PaR9i44Kdb9KC1e1kdAKnLILSYIyiUNiqW+6oBN1pMFvHS6p2rrSlBdnlo9+OyOutP9GQMNnK0bJbXLQ+lUZDMy2k/KJIZjx53R19ipvZbs961z30zcU4qIRA3A/Vd3b8P7gYK3g4mgJfkUgNwMZZZVOEsVnjPWqt82+8M4sPWvdlqEDbIoG2t25rdgEsHAmDK+LKZ/C9ai2Vm4/EKEXWHl5yLOTV0pTTUiWN5zw90MZfA0H6J7kZ7pPgz7LZXeagg7uLJzyIMQY5G3Yu9D41g/pWu+DKQIvMq5lrjtjcV8dwn7Lb/iXrluWeUI0gqzItV5TfV8ZCNLU+qQSHUUVSbDaUqt1JWtZDdKsXUfXTBLUebmXQMTrAjKuqwNKuF7G31bir4uDlvvmc+hYfmn3PA7VEIbMzRtaaE4BbrrcmLKcGm8kSvOis7KLgwZlpFoKTzFrS1KORgyLJXzUqggHDWroRRS3FFS0quITJ2cKIWNGJbe21VSCBd6bxOGFpqoq+KL8svBS8FAd2GlS7xauNi1rMKgM7TkfhSEK95mjwuyPTQV9ZG1F9b+w8XhhbePWas57Uybm1avu000dqZdo4kMRxZFrsT7oEwZ0k5Pb1aFgwOSMfbC0LpnRbltx5QhJSRsFnQuBEGla9qsh8DQie4Tl7ubMoT1JiNHos8q+j92zXDiTpwMCt5NGYKxNqdXGGCCXdNdAGLoxum/o45Ei0wZIgQ9dMkByqtMzx36X37yUuVR006jM4beSh91Ld9NvyTNz/Y9luk0ij0cNww9t6xoFp0DXDD88F8tV5CTts/wleWSm0i5q5puCKrfO7C1/okU2hu7DJest6PIOdpkeGBvpyL7Vk3t4aNnPwmj820rX/9oumzyAsw4nGaUVWFsT/oX5BDCQYdeGF2pUkS9+0SaR2lv0efVPozPU0RtfVlH5zKfVjUpSxjFIdK7ol2vly58aof1cf5DAPgPSrCn7ieC4T0AAAAASUVORK5CYII=;" parent="1" vertex="1">
                    <mxGeometry x="272.4" y="401.5" width="65" height="65" as="geometry"/>
                </mxCell>
                <mxCell id="23" value="" style="shape=image;verticalLabelPosition=bottom;labelBackgroundColor=default;verticalAlign=top;aspect=fixed;imageAspect=0;image=data:image/png,iVBORw0KGgoAAAANSUhEUgAAAToAAACgCAMAAACrFlD/AAAAsVBMVEX///8eiP8Agf95uP8AgP8Ag/+qzv8Xhv9ETlmXwv91tv9IUVz6/f/o6eqUmZ5JUlxwtP9OV2G7v8Itj//09PW00//g7v/t9f+ytbl6gIdjanPZ291aYmvm8f9urP/FyMrB2//X6P89SFOrr7Nipv/0+f9udHxUn//L4f/DxciYnaKFipA4lP+92f+hzP/f4OKLvP9Fmf9Xof92sP+TwP+Xx//t7e4zP0zQ0tR+hIuLkJbbUj2+AAANH0lEQVR4nO1dCXeiyhIGBEFBEcEtYiLua1yijuP//2GvqrpRNpOZe899mtDfORMEGmg/q2vrakaSBAQEBAQEBAQEBAQEBH42rEd34DvCCo6j3cpd7UalmSDwL9A7uIqm67oM/zRF3vYe3aHvAmurajJBZ381dSsk708QrDTiS9E0XYO/yJ/mBo/u1jdAQwGudGV3DMawNw6OU3ag8eiOPT2KQJSujqJCFryqwJ36/rA+fQ+sVbQNSQnruyB46vohPfouCNCqZui1HnCna0LffQJkyG1lnBjjmdX/vT/fByUNRmuTPjYbjRiFPfBUtNJDevUd0AJ6lCJ93CqKoh+j3lxDBVqzBFIAcAShm7JPKrl2btQy7IXY3QfoM5WZgh3aWWBP3TevZwNFlt1Hde3JAdxwS2C5YC1GCkleYRyeBz6V2cN699R418IRCdSBgK1dDMI0OfTyYDxrx8d175nxCsqMSRWjTrIOGoazyo6N4hlI5eiRHXxewIDUmAnl1IFLMqIAlgUSY1CAuwf274kBCk5m7siVOhA1zKPoLh2H88IrzoIFzHC+ItSBCkRLS4bWDTkUiOMedQ1B3ZdYZQ5YVxED9ktkmIlm1Ey0hJm4hw/w2/r0KXROtpRdV6YspEDn5PWB/XtiFIG6A31i1DVcjaYlQpe4BOdFqjgTsUBMdqcsELtNhmEgJrKd2VhB+M/CiZ3OZhKVkQj//wgwYrkdKKo6JZ36kbNTXYSwdzHGVCfTZiVdUeRYdq6owlmR6ryHo3KdvOmt1zGecMJHEUJ3HytUcFkVJph7F07dZwjAkdPltBkNcEJMb2ZcIRCij1PYWjFxtIiMKv1HdOgboYE5JmUfTaTP9lhMIYpOvsRMp+qcVWnWGlvj1qy0ojBW7z+6Y98AzR1xReVh4KKwIrGdCCP+CCXG1600UTk8ukvfBq3jirGnY3HiqiQ84b9Bs7HH0p3RR0O4JH8NjGg/sk7MDqPdavp6/Ez9zUrQBsvf/6POPTduyYD4YVfF4nYYyuruXrFicXVts8qjT1NEDy+p5YKdcjMgujrK0oLMRF/bTPO3dACpS8YVfY38Fk2TWWm7Jqc1ITmGMm9DDObOsUHqErnNGYUVq2PQslqzLebf9VSyADOisuaWsE1Qoja5C36JulhFXY/E6SqI1hYDXnccuwqrP/VbStQ6KPdqbH8wimzlSWS0TXG0Rm1mAwatVo5dtQfjwufVGNbYJmcTaURddERiSawW9zYaMDpjUz19VZYTbfrQRs2Xk0IWFmf+Q001TVTEIqevYAyizt8I2myjbSxJKmh5Ky5Dv26v31agNJVrYQVivFdXY6mJZvh2sAfXyDflZ41Ut0cZZi1X2g5ntI9rWvc07VuUyYsImLXTZKVExdmRKtm1EmsDig8zB1jzmKulPkWqj2WenOJ+FGEsUqK4iboNmaOlT1gScOg1GXofvE2P2Nxjm0a0rCAnYNRhbCCTiwsUKk00FuqHZE2BFQWV2hpHrBICl5IFuNJMBeU2wjYFiYpVEnb4h6MYVmW/y4rOMnfamC2f+CB5QlakGV91fIXaY8bj9RWZo9HbVOO25MfjSh1I2ohLXQ/X8ci0poKxAgMad0PwKkZcsYI7nLAgt1KHGAfrKa/WGZGcceZYfuU1xEpmRuOV2mjcJUHjsU0/4OciRp0UWVaBo/UaH7zGLOz1GuQ3ZE4qw9Fc5Z6S1AUqryGz9mQFCFimot58tua1zmykqnt+EEvOlFxlAJLUWSsQMOae9a9e2gH95kgjLKotJtrcyZn+YCSpQxdOTuRAArS0/ehFGHLEJawJBkPN1XhNU2dh4ckuWv3fwiP72FW0Wjuahxqv8lfok6JOmmFaZHWTqRnl5uIyNkPfZXVLpszy+NaANHXSFv017YOvtkMrqqeG4jHW5hXdwZwN10zqJMwLy5rqTvc7WY3njK8oKdc2LmuTu7L3LOooL8zDBxQuOSuF2aCloGF0oeWw0CeTOqm3h5AsrKl4HWdcB9ZjFGmTOd/4w5FNHTgbh6muqIq8P96fYA3bTEu5coVD3KMOYI1b46+WKFrj3pdtfio+oU7gcwjq/jEEdf8Yn1L3J1osr5qOZh0yJ2NaxdeVrLm7j8Z9bqzg/VAoFw7FIJf8zbSstPi4oPN3x2qJRWQ3WOtyrVwuFArlcq3Q/297+ZTAtOU+ebAvh+EEFaSssuL6ZqFWQJTpby2Hr+Yd48xMIlzgbxjT3JWrsVK79NT0rAacgdgVDvQX/uQsbyJRjUlicVMRmVNHayS01dhhjVjqBVkBilyNv192dqS93HFXvL7OjoMqEyNv8lzTEvf4eGyhnBVubQJUeuW8xbEtLSF2mO91o0xh7asWL2I6lIG5KFM92C/nbiEtVndFijbflVT9K879x2rncLiW422acKiWtyxAC4XqNmRvs103bBO1c8dyoZa0HI08il0DJyNG3KsN1Iw3TtCbUW+COUaHJOkFW+ioZGf2fjA+cBJ/xwYgBmbp8odRbPZ/ViuU0yn393IOjSwVQOgyvSYGaGQkzYgGa0b6q8jfQmm1EI1MkpDQXJUmMtCr6zX5Y93E+k2Uv2Ot1sBRWKshkX0mi71yDQHjtZYOHsBQlPM2KYY4qnxhMa+vk0DpH4ArPjRnrEz2nUVd6P+mfThsm7tZMUTAl3zxskPpvVbrw+ZQo6HJpW4N8T5CSF0c/RFfx850XUBKzgqIo3f+erH1O+IgdF0SrcbHfiV/bWEDYWGz0FQzXtXZwtLYL/y6Mfp1uUx5XoHRRFLbl7X4mxQhmkiNzVxGE3EUlVTN0jq5/oti2HjAGuQxhk0CMydyKnMSX3VYwsxJtE0Ph2vOhS58WdZtPL6T1xL341o0JRELzYDL3EWwKRQpLzyl/zqmV6T/qi21XJNliQ8zliU+0F7ehyuiyCYkFN1la//1jCoxlhfGoIz+gAzm2jG5YubyGTGKLpRdljz1trXCDbVt3rLr92BtZXpPFsqem/Z+GfoFjMtA3sq1Qr7WX3+OcaM8deXVdLv+xM1tNo7bwvYo3mqURr6DAwEBAQEBAQEBAQEBAQEBAQEBAQEBAQEBAYFnRmXerm+ue+2Xc7qJt6nQ9sS3EUxePrv1ZvPJ2RuGL3/W7rngXUwD0PH4/vDXPDy1qYYf64MLbdt8G8GL/cnNfdvxMk90q7EfqPqr+xddfhZMzM7b5rwYhD/7eXH9FufBgn+qm5w6u5q8/sW5f++u7dsZMgyYD9qx3UVKmp8fC3tJ225G37vGv6RuYWZcQJgb7czj3wgnxzlFditdABtilXO37Vy65zOKTZy6LpOkzRlbAnWb4fAt8+4vvuX7t5vXoZ3Hbj20F3DrbvKhePP2sM1HAJw/tYd173ZmOI/29rGY253o7uLXwDSYghvCR98ZADykjglPnah7MejbTAyU1Be/PgBd+ZKh0yog0VUjHP9Vc2AbA/yl8Cm+DXc26cQSdgdhq4th2AZ7muX4Z7iz7XvhGdMcDJ7GnizsRXQXLOjCZBLkVSpzs3qqVJCfur0EY7mpDIm6CdP9HYdR59S90yL+EzC0jbr0Fg76pdnpet55UsFbn9r2kN8azXDlEhK8MDsbbzMxhrjj+/6bV+mwLtaN3xXP61afhrqLndQ5Q+M6+CK6znHQDBuOk6bOoUYTI20jO2YFNAJzXs7GhB1kZT0JXbfgV3sm3RrUCG58BwdAxaErLxkPeCh+23UJrepiEX6VCHXnCHWTIWKZQZ1NctA2h8l7n+g7d9j5iz2PnrtD3ZvNdOpvE9Wpz57j+0h3lXr6RFiS1A0HthMOuGzqYrouIXW0czZTHl/dxMuHJpE0sWMm/A514Q+wMJEnnwnsC1F3Np1l/WlGq4S6Dvvqnc72b37kDnVRC5ugjs50uZMTwdIZgn1usx/lJWbJ71HHeebbGHXS2wR8d/95fJo6/8abf0HdHanzQD+CFTUc26Nr/kTqbtSlpA5wOlcd42mG7cZh/fo76mzmnER1XT2l685m54xYkpZbxsOKO9TNuQe9ZLouQZ2EyvC39Cz4TSMWqMvQdRszHIRx6pYmftGKw6WObtAxkhFX1WQCwr7tmxHzXm6/CiGk7mSQB+0xSc2grmJkOEEPQsWxh57kDRl1ngdjZW55zAmFITc/0ec4dW2740mViR/6dWfU75PknX1uGDyHfNqJfQFtd7rwFIzpnz32GHxa1Tyzh17MC/RmyYQvRl0VowrvYqQM+ePQ9Q3bMQ0fheZtYJq2Y5sGd+7rtmEMMHSIZ04837b9wbBD0YTvDAe+b/jJGLg7CLNRkwHKsdcxTGg34NZiCDp/4LB74kNN0/h1olbOi2N0kCyIJqgp81E6EIG82MbzjFfEvLqsskCxUg/Bv6D3Bp9hu6nzsJVtveGyepbe6KJ5XTpflsNUHBZeAiTW2Q9xXiwvwyvDJ7j1nDUM4YW94SqDnccn4DPPi8tykZ2HERAQEBAQEBAQEBAQEBD4yfgfLhENtFM5ToYAAAAASUVORK5CYII=;" parent="1" vertex="1">
                    <mxGeometry x="337.4" y="401.5" width="127.56" height="65" as="geometry"/>
                </mxCell>
                <mxCell id="30" value="SQLite" style="rounded=0;whiteSpace=wrap;html=1;labelPosition=center;verticalLabelPosition=bottom;align=center;verticalAlign=top;fillColor=none;" parent="1" vertex="1">
                    <mxGeometry x="284" y="230" width="160" height="110" as="geometry"/>
                </mxCell>
            </root>
        </mxGraphModel>
    </diagram>
</mxfile>